<?xml version="1.0" encoding="UTF-8" standalone="no"?>
<!-- Created with Inkscape (http://www.inkscape.org/) -->

<svg
   xmlns:dc="http://purl.org/dc/elements/1.1/"
   xmlns:cc="http://creativecommons.org/ns#"
   xmlns:rdf="http://www.w3.org/1999/02/22-rdf-syntax-ns#"
   xmlns:svg="http://www.w3.org/2000/svg"
   xmlns="http://www.w3.org/2000/svg"
   xmlns:xlink="http://www.w3.org/1999/xlink"
   xmlns:sodipodi="http://sodipodi.sourceforge.net/DTD/sodipodi-0.dtd"
   xmlns:inkscape="http://www.inkscape.org/namespaces/inkscape"
   version="1.0"
   width="96"
   height="96"
   id="svg2408"
   inkscape:version="0.48.4 r9939"
   sodipodi:docname="evernote.svg">
  <sodipodi:namedview
     pagecolor="#ffffff"
     bordercolor="#666666"
     borderopacity="1"
     objecttolerance="10"
     gridtolerance="10"
     guidetolerance="10"
     inkscape:pageopacity="0"
     inkscape:pageshadow="2"
     inkscape:window-width="1366"
     inkscape:window-height="726"
     id="namedview78"
     showgrid="false"
     inkscape:zoom="22.627417"
     inkscape:cx="29.398328"
     inkscape:cy="68.410093"
     inkscape:window-x="0"
     inkscape:window-y="20"
     inkscape:window-maximized="1"
     inkscape:current-layer="svg2408"
     showguides="true"
     inkscape:guide-bbox="true" />
  <defs
     id="defs2410">
    <linearGradient
       gradientTransform="scale(1.0058652,0.994169)"
       gradientUnits="userSpaceOnUse"
       id="ButtonShadow"
       y2="7.0165396"
       x2="45.447727"
       y1="92.539597"
       x1="45.447727">
      <stop
         offset="0"
         style="stop-color:#000000;stop-opacity:1"
         id="stop3750" />
      <stop
         offset="1"
         style="stop-color:#000000;stop-opacity:0.58823532"
         id="stop3752" />
    </linearGradient>
    <linearGradient
       id="linearGradient3737">
      <stop
         offset="0"
         style="stop-color:#ffffff;stop-opacity:1"
         id="stop3739" />
      <stop
         offset="1"
         style="stop-color:#ffffff;stop-opacity:0"
         id="stop3741" />
    </linearGradient>
    <filter
       id="filter3174"
       color-interpolation-filters="sRGB">
      <feGaussianBlur
         stdDeviation="1.71"
         id="feGaussianBlur3176" />
    </filter>
    <linearGradient
       gradientUnits="userSpaceOnUse"
       xlink:href="#linearGradient3737"
       id="linearGradient3188"
       y2="63.893143"
       x2="36.357143"
       y1="6"
       x1="36.357143" />
    <filter
       id="filter3794"
       color-interpolation-filters="sRGB"
       height="1.3839999"
       width="1.3839999"
       y="-0.192"
       x="-0.192">
      <feGaussianBlur
         stdDeviation="5.28"
         id="feGaussianBlur3796" />
    </filter>
    <linearGradient
       gradientUnits="userSpaceOnUse"
       xlink:href="#linearGradient3737"
       id="linearGradient3613"
       y2="138.66119"
       x2="48"
       y1="20.220806"
       x1="48" />
    <radialGradient
       gradientTransform="matrix(1.1573129,0,0,0.99590774,-7.5510206,0.19713193)"
       gradientUnits="userSpaceOnUse"
       xlink:href="#linearGradient3737"
       id="radialGradient3619"
       fy="90.171875"
       fx="48"
       r="42"
       cy="90.171875"
       cx="48" />
    <clipPath
       id="clipPath3613">
      <rect
         style="fill:#ffffff;fill-opacity:1;fill-rule:nonzero;stroke:none"
         id="rect3615"
         y="6"
         x="6"
         ry="6"
         rx="6"
         height="84"
         width="84" />
    </clipPath>
    <linearGradient
       gradientUnits="userSpaceOnUse"
       xlink:href="#ButtonColor"
       id="linearGradient3617"
       y2="5.9877172"
       x2="48"
       y1="90"
       x1="48" />
    <linearGradient
       gradientTransform="matrix(1.0172414,0,0,1.0172414,-1.1034483,-1.1034483)"
       gradientUnits="userSpaceOnUse"
       id="ButtonColor"
       y2="5.4252338"
       x2="58.650177"
       y1="122"
       x1="58.650177">
      <stop
         offset="0"
         style="stop-color:#264b79;stop-opacity:1"
         id="stop3189" />
      <stop
         offset="1"
         style="stop-color:#6087b8;stop-opacity:1"
         id="stop3191" />
    </linearGradient>
    <linearGradient
       id="linearGradient4949">
      <stop
         offset="0"
         style="stop-color:#ed6800;stop-opacity:1"
         id="stop4951" />
      <stop
         offset="1"
         style="stop-color:#fd9400;stop-opacity:1"
         id="stop4953" />
    </linearGradient>
    <linearGradient
       gradientUnits="userSpaceOnUse"
       xlink:href="#linearGradient39155"
       id="linearGradient6135"
       y2="34.375"
       x2="29.875"
       y1="18.875"
       x1="31.1875" />
    <linearGradient
       id="linearGradient39155">
      <stop
         offset="0"
         style="stop-color:#ffffff;stop-opacity:1"
         id="stop39157" />
      <stop
         offset="1"
         style="stop-color:#dadada;stop-opacity:1"
         id="stop39159" />
    </linearGradient>
    <linearGradient
       id="linearGradient3564">
      <stop
         offset="0"
         style="stop-color:#ffffff;stop-opacity:1"
         id="stop3566" />
      <stop
         offset="1"
         style="stop-color:#ffffff;stop-opacity:0"
         id="stop3568" />
    </linearGradient>
    <linearGradient
       id="linearGradient4941">
      <stop
         offset="0"
         style="stop-color:#3f78c2;stop-opacity:1;"
         id="stop4943" />
      <stop
         offset="1"
         style="stop-color:#2d578e;stop-opacity:1"
         id="stop4945" />
    </linearGradient>
    <linearGradient
       id="linearGradient39171">
      <stop
         offset="0"
         style="stop-color:#ffffff;stop-opacity:1"
         id="stop39173" />
      <stop
         offset="1"
         style="stop-color:#ffffff;stop-opacity:0"
         id="stop39175" />
    </linearGradient>
    <linearGradient
       gradientTransform="matrix(0.68045048,0,0,0.68045048,1.3521289,2.2555942)"
       gradientUnits="userSpaceOnUse"
       xlink:href="#linearGradient39171"
       id="linearGradient3697"
       y2="87.235779"
       x2="75.44593"
       y1="27.258341"
       x1="75.44593" />
    <radialGradient
       gradientTransform="matrix(0.68045048,0,0,0.61944217,1.3521289,6.3680831)"
       gradientUnits="userSpaceOnUse"
       xlink:href="#linearGradient4941"
       id="radialGradient3700"
       fy="67.408653"
       fx="78.563553"
       r="11.647734"
       cy="67.408653"
       cx="78.563553" />
    <linearGradient
       gradientTransform="matrix(0.09839341,0,0,0.09818547,41.850706,51.038279)"
       gradientUnits="userSpaceOnUse"
       xlink:href="#linearGradient3564"
       id="linearGradient3703"
       y2="-458.05771"
       x2="190.46461"
       y1="193.33229"
       x1="185.9903" />
    <linearGradient
       gradientTransform="matrix(0.68045048,0,0,0.68045048,1.3521289,2.2555942)"
       gradientUnits="userSpaceOnUse"
       xlink:href="#linearGradient4949"
       id="linearGradient3707"
       y2="94.974709"
       x2="79.464706"
       y1="52.145687"
       x1="79.464706" />
    <linearGradient
       gradientTransform="matrix(1.0058652,0,0,0.994169,100,0)"
       gradientUnits="userSpaceOnUse"
       id="ButtonShadow-0"
       y2="7.0165396"
       x2="45.447727"
       y1="92.539597"
       x1="45.447727">
      <stop
         offset="0"
         style="stop-color:#000000;stop-opacity:1"
         id="stop3750-8" />
      <stop
         offset="1"
         style="stop-color:#000000;stop-opacity:0.58823532"
         id="stop3752-5" />
    </linearGradient>
    <linearGradient
       gradientTransform="matrix(1.0238095,0,0,1.0119048,-1.1428571,-98.071429)"
       gradientUnits="userSpaceOnUse"
       xlink:href="#ButtonShadow-0"
       id="linearGradient3780"
       y2="90.238609"
       x2="32.251034"
       y1="6.1317081"
       x1="32.251034" />
    <linearGradient
       gradientTransform="matrix(1.0238095,0,0,1.0119048,-1.1428571,-98.071429)"
       gradientUnits="userSpaceOnUse"
       xlink:href="#ButtonShadow-0"
       id="linearGradient3772"
       y2="90.238609"
       x2="32.251034"
       y1="6.1317081"
       x1="32.251034" />
    <linearGradient
       gradientTransform="matrix(1.0238095,0,0,1.0119048,-1.1428571,-98.071429)"
       gradientUnits="userSpaceOnUse"
       xlink:href="#ButtonShadow-0"
       id="linearGradient3725"
       y2="90.238609"
       x2="32.251034"
       y1="6.1317081"
       x1="32.251034" />
    <linearGradient
       gradientTransform="translate(0,-97)"
       gradientUnits="userSpaceOnUse"
       xlink:href="#ButtonShadow-0"
       id="linearGradient3721"
       y2="90.238609"
       x2="32.251034"
       y1="6.1317081"
       x1="32.251034" />
    <linearGradient
       gradientTransform="matrix(1.0238095,0,0,1.0119048,-1.1428571,-98.071429)"
       gradientUnits="userSpaceOnUse"
       xlink:href="#ButtonShadow-0"
       id="linearGradient3059"
       y2="90.238609"
       x2="32.251034"
       y1="6.1317081"
       x1="32.251034" />
    <linearGradient
       y2="87.235779"
       x2="75.44593"
       y1="27.258341"
       x1="75.44593"
       gradientTransform="matrix(0.68045048,0,0,0.68045048,6.3857704,-0.18931738)"
       gradientUnits="userSpaceOnUse"
       id="linearGradient3057"
       xlink:href="#linearGradient39171"
       inkscape:collect="always" />
    <radialGradient
       r="11.647734"
       fy="67.408653"
       fx="78.563553"
       cy="67.408653"
       cx="78.563553"
       gradientTransform="matrix(0.68045048,0,0,0.61944217,1.3521289,6.3680831)"
       gradientUnits="userSpaceOnUse"
       id="radialGradient3060"
       xlink:href="#linearGradient4941"
       inkscape:collect="always" />
    <linearGradient
       y2="-458.05771"
       x2="190.46461"
       y1="193.33229"
       x1="185.9903"
       gradientTransform="matrix(0.09839341,0,0,0.09818547,41.850706,51.038279)"
       gradientUnits="userSpaceOnUse"
       id="linearGradient3063"
       xlink:href="#linearGradient3564"
       inkscape:collect="always" />
    <clipPath
       id="clipPath4419"
       clipPathUnits="userSpaceOnUse">
      <rect
         y="0"
         x="0"
         height="96"
         width="96"
         id="rect4421"
         style="fill:#305d98;fill-opacity:1;stroke:none" />
    </clipPath>
    <clipPath
       clipPathUnits="userSpaceOnUse"
       id="clipPath5548">
      <rect
         y="0"
         x="0"
         height="96"
         width="96"
         id="rect5550"
         style="fill:#3f78c2;fill-opacity:1;stroke:none" />
    </clipPath>
    <filter
       id="filter4797"
       style="color-interpolation-filters:sRGB;"
       inkscape:label="Drop Shadow">
      <feFlood
         id="feFlood4799"
         flood-opacity="0.4"
         flood-color="rgb(0,0,0)"
         result="flood" />
      <feComposite
         id="feComposite4801"
         in2="SourceGraphic"
         in="flood"
         operator="in"
         result="composite1" />
      <feGaussianBlur
         id="feGaussianBlur4803"
         in="composite"
         stdDeviation="3"
         result="blur" />
      <feOffset
         id="feOffset4805"
         dx="-2.41474e-15"
         dy="-2"
         result="offset" />
      <feComposite
         id="feComposite4807"
         in2="offset"
         in="SourceGraphic"
         operator="over"
         result="composite2" />
    </filter>
    <clipPath
       clipPathUnits="userSpaceOnUse"
       id="clipPath3081">
      <rect
         style="fill:#264a78;fill-opacity:1;stroke:none"
         id="rect3083"
         width="96"
         height="96"
         x="0"
         y="-9.1440882e-09" />
    </clipPath>
  </defs>
  <metadata
     id="metadata2413">
    <rdf:RDF>
      <cc:Work
         rdf:about="">
        <dc:format>image/svg+xml</dc:format>
        <dc:type
           rdf:resource="http://purl.org/dc/dcmitype/StillImage" />
        <dc:title></dc:title>
      </cc:Work>
    </rdf:RDF>
  </metadata>
  <g
     style="display:none"
     id="layer2">
    <rect
       style="opacity:0.9;fill:url(#ButtonShadow);fill-opacity:1;fill-rule:nonzero;stroke:none;filter:url(#filter3174)"
       id="rect3745"
       y="7"
       x="5"
       ry="6"
       rx="6"
       height="85"
       width="86" />
  </g>
  <rect
     y="0"
     x="0"
     height="96"
     width="96"
     id="rect3864"
     style="fill:#87c73f;fill-opacity:1;stroke:none" />
  <g
     id="g4302"
     transform="matrix(0.06297324,0,0,0.06297324,23.888245,16.51338)"
     style="fill:#2b3f14;fill-opacity:1">
    <path
       id="path4304"
       d="m 750,214 c 0,2.667 1.667,27 5,73 3.333,46 6.333,94 9,144 2.667,50 2.333,107 -1,171 -3.333,64 -9.667,121 -19,171 -9.333,50 -26.333,92 -51,126 -24.667,34 -55,51 -91,51 -102.667,0 -167.333,-8.667 -194,-26 -17.333,-13.333 -23.333,-56.667 -18,-130 1.333,-26.667 13.667,-46.333 37,-59 23.333,-12.667 46.333,-19 69,-19 l 34,2 -4,70 c -8,1.333 -20.667,2 -38,2 -13.333,0 -21.333,8.667 -24,26 -2.667,25.333 10.667,39.333 40,42 l 86,-4 c 25.333,-2.667 34.667,-48 28,-136 -1.333,-10.667 -7.333,-19.333 -18,-26 -10.667,-6.667 -22,-11 -34,-13 -12,-2 -28.333,-4.667 -49,-8 -20.667,-3.333 -36.333,-6.333 -47,-9 -18.667,-5.333 -34,-14.667 -46,-28 -12,-13.333 -21,-25.667 -27,-37 -6,-11.333 -9.667,-17 -11,-17 -1.333,0 -4,19.333 -8,58 -4,38.667 -14,58 -30,58 -29.333,0 -75.667,-5 -139,-15 C 145.667,671 107.333,659.333 94,646 71.333,623.333 50.667,573.667 32,497 13.333,420.333 4,370 4,346 4,323.333 23.333,313.333 62,316 l 116,0 c 52,0 78,-24 78,-72 0,-8 -0.333,-25.333 -1,-52 -0.667,-26.667 -1,-46.667 -1,-60 0,-54.667 13.333,-82 40,-82 60,0 100,4.667 120,14 12,5.333 21.667,14 29,26 7.333,12 11.667,23.333 13,34 l 4,14 202,12 c 6.667,0 15,1 25,3 10,2 23,8.333 39,19 16,10.667 24,24.667 24,42 l 0,0 m -96,302 c 4,-4 3.333,-14.667 -2,-32 -5.333,-17.333 -15,-34.667 -29,-52 -14,-17.333 -30.333,-26 -49,-26 -18.667,0 -33.667,7.667 -45,23 -11.333,15.333 -18.333,30.667 -21,46 -2.667,15.333 -2.667,25 0,29 5.333,4 10.333,5.667 15,5 4.667,-0.667 13.333,-2.333 26,-5 12.667,-2.667 23,-4 31,-4 9.333,0 19.667,2 31,6 11.333,4 20.667,7.333 28,10 7.333,2.667 12.333,2.667 15,0 l 0,0 M 172,208 c 0,14.667 -9.333,22 -28,22 0,0 -68.908157,-16.14124 -144,0 -36.6119,-4.73162 161.54629,-182.038787 176,-172 -22.3172,69.54263 -4,142 -4,150 l 0,0"
       inkscape:connector-curvature="0"
       style="fill:#2b3f14;fill-opacity:1"
       sodipodi:nodetypes="cssssssccscccsccccssscssssssssscssssscscccsscccssssscssssscccscccc" />
  </g>
</svg>
