<?xml version="1.0" encoding="UTF-8" standalone="no"?>
<!-- Created with Inkscape (http://www.inkscape.org/) -->

<svg
   xmlns:dc="http://purl.org/dc/elements/1.1/"
   xmlns:cc="http://creativecommons.org/ns#"
   xmlns:rdf="http://www.w3.org/1999/02/22-rdf-syntax-ns#"
   xmlns:svg="http://www.w3.org/2000/svg"
   xmlns="http://www.w3.org/2000/svg"
   xmlns:xlink="http://www.w3.org/1999/xlink"
   xmlns:sodipodi="http://sodipodi.sourceforge.net/DTD/sodipodi-0.dtd"
   xmlns:inkscape="http://www.inkscape.org/namespaces/inkscape"
   version="1.0"
   width="96"
   height="96"
   id="svg2408"
   inkscape:version="0.48.4 r9939"
   sodipodi:docname="clock.svg">
  <sodipodi:namedview
     pagecolor="#ffffff"
     bordercolor="#666666"
     borderopacity="1"
     objecttolerance="10"
     gridtolerance="10"
     guidetolerance="10"
     inkscape:pageopacity="0"
     inkscape:pageshadow="2"
     inkscape:window-width="1366"
     inkscape:window-height="726"
     id="namedview114"
     showgrid="false"
     inkscape:zoom="1.4142136"
     inkscape:cx="-13.028544"
     inkscape:cy="57.911949"
     inkscape:window-x="0"
     inkscape:window-y="20"
     inkscape:window-maximized="1"
     inkscape:current-layer="svg2408"
     showguides="true"
     inkscape:guide-bbox="true" />
  <defs
     id="defs2410">
    <linearGradient
       id="linearGradient3853">
      <stop
         id="stop3855"
         style="stop-color:#e88d01;stop-opacity:0.18431373"
         offset="0" />
      <stop
         id="stop3863"
         style="stop-color:#e58907;stop-opacity:0.4108527"
         offset="0.5" />
      <stop
         id="stop4397"
         style="stop-color:#e48a0a;stop-opacity:0.68217057"
         offset="0.75" />
      <stop
         id="stop3859"
         style="stop-color:#e4870a;stop-opacity:1"
         offset="1" />
    </linearGradient>
    <linearGradient
       id="linearGradient3698">
      <stop
         id="stop3700"
         style="stop-color:#f0a801;stop-opacity:0.18604651"
         offset="0" />
      <stop
         id="stop3711"
         style="stop-color:#f0a801;stop-opacity:0.35658914"
         offset="0.5" />
      <stop
         id="stop4395"
         style="stop-color:#e8a301;stop-opacity:0.83720928"
         offset="0.75" />
      <stop
         id="stop3703"
         style="stop-color:#e09201;stop-opacity:1"
         offset="1" />
    </linearGradient>
    <linearGradient
       id="linearGradient2841">
      <stop
         id="stop2843"
         style="stop-color:#f0bf39;stop-opacity:1"
         offset="0" />
      <stop
         id="stop2845"
         style="stop-color:#f8e699;stop-opacity:1"
         offset="1" />
    </linearGradient>
    <linearGradient
       x1="45.447727"
       y1="92.539597"
       x2="45.447727"
       y2="7.0165396"
       id="ButtonShadow"
       gradientUnits="userSpaceOnUse"
       gradientTransform="scale(1.0058652,0.994169)">
      <stop
         id="stop3750"
         style="stop-color:#000000;stop-opacity:1"
         offset="0" />
      <stop
         id="stop3752"
         style="stop-color:#000000;stop-opacity:0.58823532"
         offset="1" />
    </linearGradient>
    <linearGradient
       id="linearGradient3737">
      <stop
         id="stop3739"
         style="stop-color:#ffffff;stop-opacity:1"
         offset="0" />
      <stop
         id="stop3741"
         style="stop-color:#ffffff;stop-opacity:0"
         offset="1" />
    </linearGradient>
    <filter
       color-interpolation-filters="sRGB"
       id="filter3174">
      <feGaussianBlur
         id="feGaussianBlur3176"
         stdDeviation="1.71" />
    </filter>
    <linearGradient
       x1="36.357143"
       y1="6"
       x2="36.357143"
       y2="63.893143"
       id="linearGradient3188"
       xlink:href="#linearGradient3737"
       gradientUnits="userSpaceOnUse" />
    <filter
       x="-0.192"
       y="-0.192"
       width="1.3839999"
       height="1.3839999"
       color-interpolation-filters="sRGB"
       id="filter3794">
      <feGaussianBlur
         id="feGaussianBlur3796"
         stdDeviation="5.28" />
    </filter>
    <linearGradient
       x1="48"
       y1="20.220806"
       x2="48"
       y2="138.66119"
       id="linearGradient3613"
       xlink:href="#linearGradient3737"
       gradientUnits="userSpaceOnUse" />
    <radialGradient
       cx="48"
       cy="90.171875"
       r="42"
       fx="48"
       fy="90.171875"
       id="radialGradient3619"
       xlink:href="#linearGradient3737"
       gradientUnits="userSpaceOnUse"
       gradientTransform="matrix(1.1573129,0,0,0.99590774,-7.5510206,0.19713193)" />
    <clipPath
       id="clipPath3613">
      <rect
         width="84"
         height="84"
         rx="6"
         ry="6"
         x="6"
         y="6"
         id="rect3615"
         style="fill:#ffffff;fill-opacity:1;fill-rule:nonzero;stroke:none" />
    </clipPath>
    <linearGradient
       x1="48"
       y1="90"
       x2="48"
       y2="5.9877172"
       id="linearGradient3617"
       xlink:href="#linearGradient2841"
       gradientUnits="userSpaceOnUse" />
    <radialGradient
       cx="43.392857"
       cy="30.464287"
       r="4.1071429"
       fx="43.392857"
       fy="30.464287"
       id="radialGradient4045"
       xlink:href="#linearGradient3853"
       gradientUnits="userSpaceOnUse" />
    <radialGradient
       cx="53.542297"
       cy="24.639818"
       r="2.1428571"
       fx="53.542297"
       fy="24.639818"
       id="radialGradient4047"
       xlink:href="#linearGradient3698"
       gradientUnits="userSpaceOnUse" />
    <radialGradient
       cx="62.678574"
       cy="37.607143"
       r="5.3571429"
       fx="62.678574"
       fy="37.607143"
       id="radialGradient4049"
       xlink:href="#linearGradient3698"
       gradientUnits="userSpaceOnUse" />
    <radialGradient
       cx="30.529381"
       cy="62.282928"
       r="6.6071429"
       fx="30.529381"
       fy="62.282928"
       id="radialGradient4051"
       xlink:href="#linearGradient3698"
       gradientUnits="userSpaceOnUse" />
    <radialGradient
       cx="65.730751"
       cy="71.637032"
       r="8.2142859"
       fx="65.730751"
       fy="71.637032"
       id="radialGradient4053"
       xlink:href="#linearGradient3853"
       gradientUnits="userSpaceOnUse" />
    <radialGradient
       cx="48.795593"
       cy="56.425529"
       r="3.3928571"
       fx="48.795593"
       fy="56.425529"
       id="radialGradient4055"
       xlink:href="#linearGradient3698"
       gradientUnits="userSpaceOnUse" />
    <radialGradient
       cx="33.899441"
       cy="87.035973"
       r="4.1071429"
       fx="33.899441"
       fy="87.035973"
       id="radialGradient4059"
       xlink:href="#linearGradient3698"
       gradientUnits="userSpaceOnUse" />
    <radialGradient
       cx="50.863728"
       cy="86.75354"
       r="5.3571429"
       fx="50.863728"
       fy="86.75354"
       id="radialGradient4061"
       xlink:href="#linearGradient3698"
       gradientUnits="userSpaceOnUse" />
    <radialGradient
       cx="73.392853"
       cy="13.678572"
       r="3.5714285"
       fx="73.392853"
       fy="13.678572"
       id="radialGradient4063"
       xlink:href="#linearGradient3853"
       gradientUnits="userSpaceOnUse" />
    <radialGradient
       cx="80.714287"
       cy="25.642857"
       r="9.2857141"
       fx="80.714287"
       fy="25.642857"
       id="radialGradient4065"
       xlink:href="#linearGradient3698"
       gradientUnits="userSpaceOnUse" />
    <radialGradient
       cx="34.68845"
       cy="5.0425529"
       r="6.0714288"
       fx="34.68845"
       fy="5.0425529"
       id="radialGradient4073"
       xlink:href="#linearGradient3698"
       gradientUnits="userSpaceOnUse" />
    <radialGradient
       cx="60.238728"
       cy="7.8686676"
       r="2.7678571"
       fx="60.238728"
       fy="7.8686676"
       id="radialGradient4077"
       xlink:href="#linearGradient3698"
       gradientUnits="userSpaceOnUse" />
    <radialGradient
       cx="82.597511"
       cy="69.737335"
       r="4.8214288"
       fx="82.597511"
       fy="69.737335"
       id="radialGradient4102"
       xlink:href="#linearGradient3698"
       gradientUnits="userSpaceOnUse" />
    <radialGradient
       cx="78.237083"
       cy="79.565102"
       r="2.1428571"
       fx="78.237083"
       fy="79.565102"
       id="radialGradient4105"
       xlink:href="#linearGradient3853"
       gradientUnits="userSpaceOnUse" />
    <radialGradient
       cx="3.0230496"
       cy="17.705017"
       r="7.1428571"
       fx="3.0230496"
       fy="17.705017"
       id="radialGradient4119"
       xlink:href="#linearGradient3698"
       gradientUnits="userSpaceOnUse"
       gradientTransform="matrix(1,0,0,0.97500003,0,0.37767813)" />
    <radialGradient
       cx="12.649444"
       cy="34.282673"
       r="3.2142856"
       fx="12.649444"
       fy="34.282673"
       id="radialGradient4121"
       xlink:href="#linearGradient3698"
       gradientUnits="userSpaceOnUse" />
    <radialGradient
       cx="12.211246"
       cy="77.45517"
       r="7.8571429"
       fx="12.211246"
       fy="77.45517"
       id="radialGradient4125"
       xlink:href="#linearGradient3853"
       gradientUnits="userSpaceOnUse" />
    <clipPath
       id="clipPath4165">
      <rect
         width="84"
         height="84"
         rx="6"
         ry="6"
         x="6"
         y="6"
         id="rect4167"
         style="fill:#ff2a2a;fill-opacity:1;fill-rule:nonzero;stroke:none" />
    </clipPath>
    <radialGradient
       cx="24.821428"
       cy="26.357143"
       r="8.0357141"
       fx="24.821428"
       fy="26.357143"
       id="radialGradient4393"
       xlink:href="#linearGradient3853"
       gradientUnits="userSpaceOnUse" />
    <linearGradient
       x1="45.447727"
       y1="92.539597"
       x2="45.447727"
       y2="7.0165396"
       id="ButtonShadow-0"
       gradientUnits="userSpaceOnUse"
       gradientTransform="matrix(1.0058652,0,0,0.994169,100,0)">
      <stop
         id="stop3750-8"
         style="stop-color:#000000;stop-opacity:1"
         offset="0" />
      <stop
         id="stop3752-5"
         style="stop-color:#000000;stop-opacity:0.58823532"
         offset="1" />
    </linearGradient>
    <linearGradient
       x1="32.251034"
       y1="6.1317081"
       x2="32.251034"
       y2="90.238609"
       id="linearGradient3780"
       xlink:href="#ButtonShadow-0"
       gradientUnits="userSpaceOnUse"
       gradientTransform="matrix(1.0238095,0,0,1.0119048,-1.1428571,-98.071429)" />
    <linearGradient
       x1="32.251034"
       y1="6.1317081"
       x2="32.251034"
       y2="90.238609"
       id="linearGradient3772"
       xlink:href="#ButtonShadow-0"
       gradientUnits="userSpaceOnUse"
       gradientTransform="matrix(1.0238095,0,0,1.0119048,-1.1428571,-98.071429)" />
    <linearGradient
       x1="32.251034"
       y1="6.1317081"
       x2="32.251034"
       y2="90.238609"
       id="linearGradient3725"
       xlink:href="#ButtonShadow-0"
       gradientUnits="userSpaceOnUse"
       gradientTransform="matrix(1.0238095,0,0,1.0119048,-1.1428571,-98.071429)" />
    <linearGradient
       x1="32.251034"
       y1="6.1317081"
       x2="32.251034"
       y2="90.238609"
       id="linearGradient3721"
       xlink:href="#ButtonShadow-0"
       gradientUnits="userSpaceOnUse"
       gradientTransform="translate(0,-97)" />
    <linearGradient
       x1="32.251034"
       y1="6.1317081"
       x2="32.251034"
       y2="90.238609"
       id="linearGradient3059"
       xlink:href="#ButtonShadow-0"
       gradientUnits="userSpaceOnUse"
       gradientTransform="matrix(1.0238095,0,0,1.0119048,-1.1428571,-98.071429)" />
    <filter
       id="filter3944"
       color-interpolation-filters="sRGB">
      <feGaussianBlur
         stdDeviation="0.4359375"
         id="feGaussianBlur3946" />
    </filter>
    <linearGradient
       gradientUnits="userSpaceOnUse"
       xlink:href="#linearGradient3700"
       id="linearGradient3926"
       y2="5.9877172"
       x2="48"
       y1="90"
       x1="48" />
    <linearGradient
       gradientUnits="userSpaceOnUse"
       xlink:href="#linearGradient3737-4"
       id="linearGradient3918"
       y2="16"
       x2="56"
       y1="48"
       x1="56" />
    <radialGradient
       gradientUnits="userSpaceOnUse"
       xlink:href="#linearGradient3893"
       id="radialGradient3901"
       fy="46.058418"
       fx="48.000896"
       r="3"
       cy="46.058418"
       cx="48.000896" />
    <radialGradient
       gradientUnits="userSpaceOnUse"
       xlink:href="#linearGradient3674"
       id="radialGradient3682"
       fy="48"
       fx="48"
       r="32"
       cy="48"
       cx="48" />
    <linearGradient
       gradientTransform="matrix(1.0238095,0,0,1.0119048,-1.1428571,-98.071429)"
       gradientUnits="userSpaceOnUse"
       xlink:href="#ButtonShadow-0-9"
       id="linearGradient3026"
       y2="90.238609"
       x2="32.251034"
       y1="6.1317081"
       x1="32.251034" />
    <linearGradient
       gradientTransform="translate(0,-97)"
       gradientUnits="userSpaceOnUse"
       xlink:href="#ButtonShadow-0-9"
       id="linearGradient3721-4"
       y2="90.238609"
       x2="32.251034"
       y1="6.1317081"
       x1="32.251034" />
    <linearGradient
       gradientTransform="matrix(1.0238095,0,0,1.0119048,-1.1428571,-98.071429)"
       gradientUnits="userSpaceOnUse"
       xlink:href="#ButtonShadow-0-9"
       id="linearGradient3725-8"
       y2="90.238609"
       x2="32.251034"
       y1="6.1317081"
       x1="32.251034" />
    <linearGradient
       gradientTransform="matrix(1.0238095,0,0,1.0119048,-1.1428571,-98.071429)"
       gradientUnits="userSpaceOnUse"
       xlink:href="#ButtonShadow-0-9"
       id="linearGradient3772-1"
       y2="90.238609"
       x2="32.251034"
       y1="6.1317081"
       x1="32.251034" />
    <linearGradient
       gradientTransform="matrix(1.0238095,0,0,1.0119048,-1.1428571,-98.071429)"
       gradientUnits="userSpaceOnUse"
       xlink:href="#ButtonShadow-0-9"
       id="linearGradient3780-3"
       y2="90.238609"
       x2="32.251034"
       y1="6.1317081"
       x1="32.251034" />
    <linearGradient
       gradientTransform="matrix(1.0058652,0,0,0.994169,100,0)"
       gradientUnits="userSpaceOnUse"
       id="ButtonShadow-0-9"
       y2="7.0165396"
       x2="45.447727"
       y1="92.539597"
       x1="45.447727">
      <stop
         offset="0"
         style="stop-color:#000000;stop-opacity:1"
         id="stop3750-8-9" />
      <stop
         offset="1"
         style="stop-color:#000000;stop-opacity:0.58823532"
         id="stop3752-5-5" />
    </linearGradient>
    <clipPath
       id="clipPath3613-7">
      <rect
         style="fill:#ffffff;fill-opacity:1;fill-rule:nonzero;stroke:none"
         id="rect3615-5"
         y="6"
         x="6"
         ry="6"
         rx="6"
         height="84"
         width="84" />
    </clipPath>
    <radialGradient
       gradientTransform="matrix(1.1573129,0,0,0.99590774,-7.5510206,0.19713193)"
       gradientUnits="userSpaceOnUse"
       xlink:href="#linearGradient3737-4"
       id="radialGradient3619-7"
       fy="90.171875"
       fx="48"
       r="42"
       cy="90.171875"
       cx="48" />
    <linearGradient
       gradientUnits="userSpaceOnUse"
       xlink:href="#linearGradient3737-4"
       id="linearGradient3613-5"
       y2="138.66119"
       x2="48"
       y1="20.220806"
       x1="48" />
    <filter
       id="filter3794-0"
       color-interpolation-filters="sRGB"
       height="1.3839999"
       width="1.3839999"
       y="-0.192"
       x="-0.192">
      <feGaussianBlur
         stdDeviation="5.28"
         id="feGaussianBlur3796-2" />
    </filter>
    <linearGradient
       gradientUnits="userSpaceOnUse"
       xlink:href="#linearGradient3737-4"
       id="linearGradient3188-1"
       y2="63.893143"
       x2="36.357143"
       y1="6"
       x1="36.357143" />
    <filter
       id="filter3174-0"
       color-interpolation-filters="sRGB">
      <feGaussianBlur
         stdDeviation="1.71"
         id="feGaussianBlur3176-2" />
    </filter>
    <linearGradient
       id="linearGradient3700">
      <stop
         offset="0"
         style="stop-color:#6bc72e;stop-opacity:1"
         id="stop3702" />
      <stop
         offset="1"
         style="stop-color:#b5f48b;stop-opacity:1"
         id="stop3704" />
    </linearGradient>
    <linearGradient
       id="linearGradient3737-4">
      <stop
         offset="0"
         style="stop-color:#ffffff;stop-opacity:1"
         id="stop3739-5" />
      <stop
         offset="1"
         style="stop-color:#ffffff;stop-opacity:0"
         id="stop3741-8" />
    </linearGradient>
    <linearGradient
       gradientTransform="scale(1.0058652,0.994169)"
       gradientUnits="userSpaceOnUse"
       id="ButtonShadow-5"
       y2="7.0165396"
       x2="45.447727"
       y1="92.539597"
       x1="45.447727">
      <stop
         offset="0"
         style="stop-color:#000000;stop-opacity:1"
         id="stop3750-3" />
      <stop
         offset="1"
         style="stop-color:#000000;stop-opacity:0.58823532"
         id="stop3752-7" />
    </linearGradient>
    <linearGradient
       id="linearGradient3674">
      <stop
         offset="0"
         style="stop-color:#ffffff;stop-opacity:1"
         id="stop3676" />
      <stop
         offset="0.89999998"
         style="stop-color:#ffffff;stop-opacity:1"
         id="stop3684" />
      <stop
         offset="1"
         style="stop-color:#e5e5e5;stop-opacity:1"
         id="stop3678" />
    </linearGradient>
    <linearGradient
       id="linearGradient3893">
      <stop
         offset="0"
         style="stop-color:#ffffff;stop-opacity:1"
         id="stop3895" />
      <stop
         offset="1"
         style="stop-color:#a2a2a2;stop-opacity:1"
         id="stop3897" />
    </linearGradient>
    <radialGradient
       inkscape:collect="always"
       xlink:href="#linearGradient3674"
       id="radialGradient4291"
       gradientUnits="userSpaceOnUse"
       cx="48"
       cy="48"
       fx="48"
       fy="48"
       r="32" />
    <radialGradient
       inkscape:collect="always"
       xlink:href="#linearGradient3893"
       id="radialGradient4293"
       gradientUnits="userSpaceOnUse"
       cx="48.000896"
       cy="46.058418"
       fx="48.000896"
       fy="46.058418"
       r="3" />
    <radialGradient
       inkscape:collect="always"
       xlink:href="#linearGradient3893"
       id="radialGradient4297"
       gradientUnits="userSpaceOnUse"
       cx="48.000896"
       cy="46.058418"
       fx="48.000896"
       fy="46.058418"
       r="3"
       gradientTransform="matrix(0.33333333,0,0,0.33333333,-100.84359,28.083847)" />
    <radialGradient
       inkscape:collect="always"
       xlink:href="#linearGradient3674"
       id="radialGradient4337"
       gradientUnits="userSpaceOnUse"
       cx="48"
       cy="48"
       fx="48"
       fy="48"
       r="32"
       gradientTransform="matrix(0,1.0625,-1.0625,0,-33.84359,-6.9161532)" />
    <linearGradient
       inkscape:collect="always"
       xlink:href="#linearGradient3737-4"
       id="linearGradient4340"
       gradientUnits="userSpaceOnUse"
       x1="48"
       y1="20.220806"
       x2="48"
       y2="138.66119" />
    <linearGradient
       inkscape:collect="always"
       xlink:href="#linearGradient3700"
       id="linearGradient4343"
       gradientUnits="userSpaceOnUse"
       x1="48"
       y1="90"
       x2="48"
       y2="5.9877172" />
    <linearGradient
       inkscape:collect="always"
       xlink:href="#linearGradient3737-4"
       id="linearGradient4345"
       gradientUnits="userSpaceOnUse"
       x1="36.357143"
       y1="6"
       x2="36.357143"
       y2="63.893143" />
    <radialGradient
       inkscape:collect="always"
       xlink:href="#linearGradient3737-4"
       id="radialGradient4347"
       gradientUnits="userSpaceOnUse"
       gradientTransform="matrix(1.1573129,0,0,0.99590774,-7.5510206,0.19713193)"
       cx="48"
       cy="90.171875"
       fx="48"
       fy="90.171875"
       r="42" />
    <linearGradient
       inkscape:collect="always"
       xlink:href="#linearGradient3737-4"
       id="linearGradient4349"
       gradientUnits="userSpaceOnUse"
       x1="56"
       y1="48"
       x2="56"
       y2="16" />
    <linearGradient
       inkscape:collect="always"
       xlink:href="#linearGradient3737-4"
       id="linearGradient4352"
       gradientUnits="userSpaceOnUse"
       x1="56"
       y1="48"
       x2="56"
       y2="16"
       gradientTransform="translate(-132.84359,-3.9161532)" />
    <radialGradient
       inkscape:collect="always"
       xlink:href="#linearGradient3737-4"
       id="radialGradient4355"
       gradientUnits="userSpaceOnUse"
       gradientTransform="matrix(1.1573129,0,0,0.99590774,-128.63162,21.277331)"
       cx="48"
       cy="90.171875"
       fx="48"
       fy="90.171875"
       r="42" />
    <linearGradient
       inkscape:collect="always"
       xlink:href="#linearGradient3737-4"
       id="linearGradient4358"
       gradientUnits="userSpaceOnUse"
       x1="36.357143"
       y1="6"
       x2="36.357143"
       y2="63.893143"
       gradientTransform="translate(-132.1084,-3.9161532)" />
    <linearGradient
       inkscape:collect="always"
       xlink:href="#linearGradient3700"
       id="linearGradient4361"
       gradientUnits="userSpaceOnUse"
       x1="48"
       y1="90"
       x2="48"
       y2="5.9877172"
       gradientTransform="translate(-132.84359,-3.9161532)" />
    <linearGradient
       inkscape:collect="always"
       xlink:href="#ButtonShadow-0-9"
       id="linearGradient4363"
       gradientUnits="userSpaceOnUse"
       gradientTransform="matrix(1.0238095,0,0,1.0119048,-1.1428571,-98.071429)"
       x1="32.251034"
       y1="6.1317081"
       x2="32.251034"
       y2="90.238609" />
    <linearGradient
       inkscape:collect="always"
       xlink:href="#ButtonShadow-0-9"
       id="linearGradient4365"
       gradientUnits="userSpaceOnUse"
       gradientTransform="matrix(1.0238095,0,0,1.0119048,-1.1428571,-98.071429)"
       x1="32.251034"
       y1="6.1317081"
       x2="32.251034"
       y2="90.238609" />
    <linearGradient
       inkscape:collect="always"
       xlink:href="#ButtonShadow-0-9"
       id="linearGradient4367"
       gradientUnits="userSpaceOnUse"
       gradientTransform="matrix(1.0238095,0,0,1.0119048,-1.1428571,-98.071429)"
       x1="32.251034"
       y1="6.1317081"
       x2="32.251034"
       y2="90.238609" />
    <linearGradient
       inkscape:collect="always"
       xlink:href="#ButtonShadow-0-9"
       id="linearGradient4369"
       gradientUnits="userSpaceOnUse"
       gradientTransform="matrix(1.0238095,0,0,1.0119048,-1.1428571,-98.071429)"
       x1="32.251034"
       y1="6.1317081"
       x2="32.251034"
       y2="90.238609" />
    <linearGradient
       inkscape:collect="always"
       xlink:href="#ButtonShadow-0-9"
       id="linearGradient4371"
       gradientUnits="userSpaceOnUse"
       gradientTransform="translate(0,-97)"
       x1="32.251034"
       y1="6.1317081"
       x2="32.251034"
       y2="90.238609" />
    <linearGradient
       inkscape:collect="always"
       xlink:href="#ButtonShadow-0-9"
       id="linearGradient4374"
       gradientUnits="userSpaceOnUse"
       gradientTransform="translate(-132.84359,-93.083847)"
       x1="32.251034"
       y1="6.1317081"
       x2="32.251034"
       y2="90.238609" />
    <linearGradient
       inkscape:collect="always"
       xlink:href="#ButtonShadow-0-9"
       id="linearGradient4377"
       gradientUnits="userSpaceOnUse"
       gradientTransform="matrix(1.0238095,0,0,1.0119048,-133.98645,-94.155276)"
       x1="32.251034"
       y1="6.1317081"
       x2="32.251034"
       y2="90.238609" />
    <linearGradient
       inkscape:collect="always"
       xlink:href="#ButtonShadow-0-9"
       id="linearGradient4380"
       gradientUnits="userSpaceOnUse"
       gradientTransform="matrix(1.0238095,0,0,-1.0119048,-133.98645,94.155276)"
       x1="32.251034"
       y1="6.1317081"
       x2="32.251034"
       y2="90.238609" />
    <linearGradient
       inkscape:collect="always"
       xlink:href="#ButtonShadow-0-9"
       id="linearGradient4383"
       gradientUnits="userSpaceOnUse"
       gradientTransform="matrix(1.0238095,0,0,-1.0119048,-133.98645,94.155276)"
       x1="32.251034"
       y1="6.1317081"
       x2="32.251034"
       y2="90.238609" />
    <linearGradient
       inkscape:collect="always"
       xlink:href="#ButtonShadow-0-9"
       id="linearGradient4386"
       gradientUnits="userSpaceOnUse"
       gradientTransform="matrix(1.0238095,0,0,-1.0119048,-133.98645,94.155276)"
       x1="32.251034"
       y1="6.1317081"
       x2="32.251034"
       y2="90.238609" />
    <linearGradient
       inkscape:collect="always"
       xlink:href="#ButtonShadow-5"
       id="linearGradient4388"
       gradientUnits="userSpaceOnUse"
       gradientTransform="scale(1.0058652,0.994169)"
       x1="45.447727"
       y1="92.539597"
       x2="45.447727"
       y2="7.0165396" />
    <linearGradient
       inkscape:collect="always"
       xlink:href="#ButtonShadow-5"
       id="linearGradient4391"
       gradientUnits="userSpaceOnUse"
       gradientTransform="matrix(1.0058652,0,0,0.994169,-132.84359,-3.9161532)"
       x1="45.447727"
       y1="92.539597"
       x2="45.447727"
       y2="7.0165396" />
    <linearGradient
       inkscape:collect="always"
       xlink:href="#linearGradient3737-4"
       id="linearGradient4408"
       gradientUnits="userSpaceOnUse"
       x1="48"
       y1="20.220806"
       x2="48"
       y2="138.66119" />
    <linearGradient
       gradientTransform="matrix(1.0238095,0,0,1.0119048,-1.142857,-0.08333333)"
       gradientUnits="userSpaceOnUse"
       xlink:href="#ButtonShadow-1"
       id="linearGradient3682"
       y2="7.2913489"
       x2="40.716122"
       y1="91.15094"
       x1="40.716122" />
    <linearGradient
       gradientTransform="matrix(1.0238095,0,0,1.0119048,-1.142857,-0.08333333)"
       gradientUnits="userSpaceOnUse"
       xlink:href="#ButtonShadow-1"
       id="linearGradient3674-1"
       y2="7.2913489"
       x2="40.716122"
       y1="91.15094"
       x1="40.716122" />
    <linearGradient
       gradientTransform="matrix(1.0238095,0,0,1.0119048,-1.142857,-0.08333333)"
       gradientUnits="userSpaceOnUse"
       xlink:href="#ButtonShadow-1"
       id="linearGradient3660"
       y2="7.2913489"
       x2="40.716122"
       y1="91.15094"
       x1="40.716122" />
    <linearGradient
       gradientTransform="matrix(1.0238095,0,0,1.0119048,-1.142857,-0.08333333)"
       gradientUnits="userSpaceOnUse"
       xlink:href="#ButtonShadow-1"
       id="linearGradient3652"
       y2="7.2913489"
       x2="40.716122"
       y1="91.15094"
       x1="40.716122" />
    <linearGradient
       gradientUnits="userSpaceOnUse"
       xlink:href="#ButtonShadow-1"
       id="linearGradient3643"
       y2="7.2913489"
       x2="40.716122"
       y1="91.15094"
       x1="40.716122" />
    <radialGradient
       gradientTransform="matrix(1.3341109,0,0,0.95758929,-16.026413,2.1112584)"
       gradientUnits="userSpaceOnUse"
       xlink:href="#linearGradient3737-2"
       id="radialGradient3684"
       fy="89.688721"
       fx="47.967342"
       r="42"
       cy="89.688721"
       cx="47.967342" />
    <clipPath
       id="clipPath2880">
      <path
         style="fill:#ffffff;fill-opacity:1;fill-rule:nonzero;stroke:none"
         id="path2882"
         inkscape:connector-curvature="0"
         d="M 12,6 C 8.8423036,6 6.2807978,8.4087223 6.03125,11.5 8.5006537,11.517094 10.5,13.526594 10.5,16 c 0,2.484001 -2.016,4.5 -4.5,4.5 l 0,7 c 2.484,0 4.5,2.016 4.5,4.5 0,2.484001 -2.016,4.5 -4.5,4.5 l 0,7 c 2.484,0 4.5,2.016 4.5,4.5 0,2.484001 -2.016,4.5 -4.5,4.5 l 0,7 c 2.484,0 4.5,2.016 4.5,4.5 0,2.484001 -2.016,4.5 -4.5,4.5 l 0,7 c 2.484,-4e-6 4.5,2.016 4.5,4.5 0,2.473403 -1.9993463,4.482906 -4.46875,4.5 C 6.2807978,87.591278 8.8423036,90 12,90 c 0,-2.484 2.016,-4.5 4.5,-4.5 2.484001,0 4.5,2.016 4.5,4.5 l 7,0 c 0,-2.484 2.016,-4.5 4.5,-4.5 2.484001,0 4.5,2.016 4.5,4.5 l 7,0 c 0,-2.484 2.016,-4.5 4.5,-4.5 2.484001,0 4.5,2.016 4.5,4.5 l 7,0 c 0,-2.484 2.016,-4.5 4.5,-4.5 2.484001,0 4.5,2.016 4.5,4.5 l 7,0 c -4e-6,-2.484 2.016,-4.5 4.5,-4.5 2.452216,0 4.449324,1.966103 4.5,4.40625 C 87.688537,89.461133 89.746004,87.259273 89.96875,84.5 87.499346,84.482903 85.5,82.473406 85.5,80 c 0,-2.484004 2.016,-4.5 4.5,-4.5 l 0,-7 c -2.484,10e-7 -4.5,-2.016 -4.5,-4.5 0,-2.484 2.016,-4.5 4.5,-4.5 l 0,-7 c -2.484,10e-7 -4.5,-2.016 -4.5,-4.5 0,-2.484 2.016,-4.5 4.5,-4.5 l 0,-7 c -2.484,10e-7 -4.5,-2.016 -4.5,-4.5 0,-2.484 2.016,-4.5 4.5,-4.5 l 0,-7 c -2.484,1e-6 -4.5,-2.016 -4.5,-4.5 0,-2.473406 1.999346,-4.482906 4.46875,-4.5 C 89.746004,8.7407268 87.688537,6.538867 85,6.09375 84.949321,8.5338976 82.952219,10.5 80.5,10.5 78.015996,10.5 76,8.4840001 76,6 l -7,0 c 10e-7,2.4840004 -2.016,4.5 -4.5,4.5 C 62.016,10.5 60,8.4840001 60,6 l -7,0 c 10e-7,2.4840004 -2.016,4.5 -4.5,4.5 C 46.016,10.5 44,8.4840001 44,6 l -7,0 c 10e-7,2.4840004 -2.016,4.5 -4.5,4.5 C 30.016,10.5 28,8.4840001 28,6 l -7,0 c 1e-6,2.4840004 -2.016,4.5 -4.5,4.5 C 14.016,10.5 12,8.4840001 12,6 z" />
    </clipPath>
    <linearGradient
       gradientUnits="userSpaceOnUse"
       xlink:href="#linearGradient3737-0"
       id="linearGradient2885"
       y2="138.66119"
       x2="48"
       y1="20.220806"
       x1="48" />
    <filter
       id="filter3794-1"
       color-interpolation-filters="sRGB"
       height="1.3839999"
       width="1.3839999"
       y="-0.192"
       x="-0.192">
      <feGaussianBlur
         stdDeviation="5.28"
         id="feGaussianBlur3796-0" />
    </filter>
    <linearGradient
       id="linearGradient3737-0">
      <stop
         offset="0"
         style="stop-color:#fdff98;stop-opacity:1"
         id="stop3739-3" />
      <stop
         offset="1"
         style="stop-color:#ffffff;stop-opacity:0"
         id="stop3741-0" />
    </linearGradient>
    <linearGradient
       gradientUnits="userSpaceOnUse"
       xlink:href="#ButtonColor"
       id="linearGradient3441"
       y2="5.9877172"
       x2="48"
       y1="90"
       x1="48" />
    <linearGradient
       gradientUnits="userSpaceOnUse"
       xlink:href="#linearGradient3737-2"
       id="linearGradient3434"
       y2="74.09301"
       x2="31.714285"
       y1="6"
       x1="31.714285" />
    <filter
       id="filter3174-6"
       color-interpolation-filters="sRGB">
      <feGaussianBlur
         stdDeviation="1.71"
         id="feGaussianBlur3176-8" />
    </filter>
    <linearGradient
       id="linearGradient3737-2">
      <stop
         offset="0"
         style="stop-color:#ffffff;stop-opacity:1"
         id="stop3739-59" />
      <stop
         offset="1"
         style="stop-color:#ffffff;stop-opacity:0"
         id="stop3741-01" />
    </linearGradient>
    <linearGradient
       gradientTransform="scale(1.0058652,0.994169)"
       gradientUnits="userSpaceOnUse"
       id="ButtonShadow-1"
       y2="7.0165396"
       x2="45.447727"
       y1="92.539597"
       x1="45.447727">
      <stop
         offset="0"
         style="stop-color:#000000;stop-opacity:1"
         id="stop3750-0" />
      <stop
         offset="1"
         style="stop-color:#000000;stop-opacity:0.58823532"
         id="stop3752-3" />
    </linearGradient>
    <linearGradient
       gradientUnits="userSpaceOnUse"
       id="ButtonColor"
       y2="5.4252338"
       x2="58.650177"
       y1="122"
       x1="58.650177">
      <stop
         offset="0"
         style="stop-color:#a00000;stop-opacity:1"
         id="stop3189" />
      <stop
         offset="1"
         style="stop-color:#ff0505;stop-opacity:1"
         id="stop3191" />
    </linearGradient>
    <linearGradient
       inkscape:collect="always"
       xlink:href="#ButtonShadow-1"
       id="linearGradient6870"
       gradientUnits="userSpaceOnUse"
       gradientTransform="scale(1.0058652,0.994169)"
       x1="45.447727"
       y1="92.539597"
       x2="45.447727"
       y2="7.0165396" />
    <linearGradient
       inkscape:collect="always"
       xlink:href="#ButtonShadow-1"
       id="linearGradient6872"
       gradientUnits="userSpaceOnUse"
       gradientTransform="matrix(1.0238095,0,0,1.0119048,-1.142857,-0.08333333)"
       x1="40.716122"
       y1="91.15094"
       x2="40.716122"
       y2="7.2913489" />
    <linearGradient
       inkscape:collect="always"
       xlink:href="#ButtonShadow-1"
       id="linearGradient6874"
       gradientUnits="userSpaceOnUse"
       gradientTransform="matrix(1.0238095,0,0,1.0119048,-1.142857,-0.08333333)"
       x1="40.716122"
       y1="91.15094"
       x2="40.716122"
       y2="7.2913489" />
    <linearGradient
       inkscape:collect="always"
       xlink:href="#ButtonShadow-1"
       id="linearGradient6876"
       gradientUnits="userSpaceOnUse"
       x1="40.716122"
       y1="91.15094"
       x2="40.716122"
       y2="7.2913489" />
    <linearGradient
       inkscape:collect="always"
       xlink:href="#ButtonShadow-1"
       id="linearGradient6878"
       gradientUnits="userSpaceOnUse"
       gradientTransform="matrix(1.0238095,0,0,1.0119048,-1.142857,-0.08333333)"
       x1="40.716122"
       y1="91.15094"
       x2="40.716122"
       y2="7.2913489" />
    <linearGradient
       inkscape:collect="always"
       xlink:href="#ButtonShadow-1"
       id="linearGradient6880"
       gradientUnits="userSpaceOnUse"
       gradientTransform="matrix(1.0238095,0,0,1.0119048,-1.142857,-0.08333333)"
       x1="40.716122"
       y1="91.15094"
       x2="40.716122"
       y2="7.2913489" />
    <linearGradient
       inkscape:collect="always"
       xlink:href="#ButtonColor"
       id="linearGradient6882"
       gradientUnits="userSpaceOnUse"
       x1="48"
       y1="90"
       x2="48"
       y2="5.9877172" />
    <linearGradient
       inkscape:collect="always"
       xlink:href="#linearGradient3737-2"
       id="linearGradient6884"
       gradientUnits="userSpaceOnUse"
       x1="31.714285"
       y1="6"
       x2="31.714285"
       y2="74.09301" />
    <radialGradient
       inkscape:collect="always"
       xlink:href="#linearGradient3737-2"
       id="radialGradient6886"
       gradientUnits="userSpaceOnUse"
       gradientTransform="matrix(1.3341109,0,0,0.95758929,-16.026413,2.1112584)"
       cx="47.967342"
       cy="89.688721"
       fx="47.967342"
       fy="89.688721"
       r="42" />
    <linearGradient
       inkscape:collect="always"
       xlink:href="#linearGradient3737-0"
       id="linearGradient6888"
       gradientUnits="userSpaceOnUse"
       x1="48"
       y1="20.220806"
       x2="48"
       y2="138.66119" />
    <linearGradient
       inkscape:collect="always"
       xlink:href="#linearGradient3737-0"
       id="linearGradient6915"
       gradientUnits="userSpaceOnUse"
       x1="48"
       y1="20.220806"
       x2="48"
       y2="138.66119" />
    <linearGradient
       inkscape:collect="always"
       xlink:href="#ButtonColor"
       id="linearGradient6918"
       gradientUnits="userSpaceOnUse"
       x1="48"
       y1="90"
       x2="48"
       y2="5.9877172" />
    <linearGradient
       inkscape:collect="always"
       xlink:href="#linearGradient3737-2"
       id="linearGradient6920"
       gradientUnits="userSpaceOnUse"
       x1="31.714285"
       y1="6"
       x2="31.714285"
       y2="74.09301" />
    <radialGradient
       inkscape:collect="always"
       xlink:href="#linearGradient3737-2"
       id="radialGradient6922"
       gradientUnits="userSpaceOnUse"
       gradientTransform="matrix(1.3341109,0,0,0.95758929,-16.026413,2.1112584)"
       cx="47.967342"
       cy="89.688721"
       fx="47.967342"
       fy="89.688721"
       r="42" />
    <radialGradient
       inkscape:collect="always"
       xlink:href="#linearGradient3737-2"
       id="radialGradient6925"
       gradientUnits="userSpaceOnUse"
       gradientTransform="matrix(1.3341109,0,0,0.95758929,-119.27641,-7.639025)"
       cx="47.967342"
       cy="89.688721"
       fx="47.967342"
       fy="89.688721"
       r="42" />
    <linearGradient
       inkscape:collect="always"
       xlink:href="#linearGradient3737-2"
       id="linearGradient6928"
       gradientUnits="userSpaceOnUse"
       x1="31.714285"
       y1="6"
       x2="31.714285"
       y2="74.09301"
       gradientTransform="translate(-103.25,-9.7502834)" />
    <linearGradient
       inkscape:collect="always"
       xlink:href="#ButtonColor"
       id="linearGradient6931"
       gradientUnits="userSpaceOnUse"
       x1="48"
       y1="90"
       x2="48"
       y2="5.9877172"
       gradientTransform="translate(-103.25,-9.7502834)" />
    <linearGradient
       inkscape:collect="always"
       xlink:href="#ButtonShadow-1"
       id="linearGradient6933"
       gradientUnits="userSpaceOnUse"
       gradientTransform="matrix(1.0238095,0,0,1.0119048,-1.142857,-0.08333333)"
       x1="40.716122"
       y1="91.15094"
       x2="40.716122"
       y2="7.2913489" />
    <linearGradient
       inkscape:collect="always"
       xlink:href="#ButtonShadow-1"
       id="linearGradient6935"
       gradientUnits="userSpaceOnUse"
       gradientTransform="matrix(1.0238095,0,0,1.0119048,-1.142857,-0.08333333)"
       x1="40.716122"
       y1="91.15094"
       x2="40.716122"
       y2="7.2913489" />
    <linearGradient
       inkscape:collect="always"
       xlink:href="#ButtonShadow-1"
       id="linearGradient6937"
       gradientUnits="userSpaceOnUse"
       x1="40.716122"
       y1="91.15094"
       x2="40.716122"
       y2="7.2913489" />
    <linearGradient
       inkscape:collect="always"
       xlink:href="#ButtonShadow-1"
       id="linearGradient6939"
       gradientUnits="userSpaceOnUse"
       gradientTransform="matrix(1.0238095,0,0,1.0119048,-1.142857,-0.08333333)"
       x1="40.716122"
       y1="91.15094"
       x2="40.716122"
       y2="7.2913489" />
    <linearGradient
       inkscape:collect="always"
       xlink:href="#ButtonShadow-1"
       id="linearGradient6941"
       gradientUnits="userSpaceOnUse"
       gradientTransform="matrix(1.0238095,0,0,1.0119048,-1.142857,-0.08333333)"
       x1="40.716122"
       y1="91.15094"
       x2="40.716122"
       y2="7.2913489" />
    <linearGradient
       inkscape:collect="always"
       xlink:href="#ButtonShadow-1"
       id="linearGradient6944"
       gradientUnits="userSpaceOnUse"
       gradientTransform="matrix(1.0238095,0,0,1.0119048,-104.39286,-9.8336167)"
       x1="40.716122"
       y1="91.15094"
       x2="40.716122"
       y2="7.2913489" />
    <linearGradient
       inkscape:collect="always"
       xlink:href="#ButtonShadow-1"
       id="linearGradient6947"
       gradientUnits="userSpaceOnUse"
       gradientTransform="matrix(1.0238095,0,0,1.0119048,-104.39286,-9.8336167)"
       x1="40.716122"
       y1="91.15094"
       x2="40.716122"
       y2="7.2913489" />
    <linearGradient
       inkscape:collect="always"
       xlink:href="#ButtonShadow-1"
       id="linearGradient6950"
       gradientUnits="userSpaceOnUse"
       x1="40.716122"
       y1="91.15094"
       x2="40.716122"
       y2="7.2913489"
       gradientTransform="translate(-103.25,-9.7502834)" />
    <linearGradient
       inkscape:collect="always"
       xlink:href="#ButtonShadow-1"
       id="linearGradient6953"
       gradientUnits="userSpaceOnUse"
       gradientTransform="matrix(1.0238095,0,0,1.0119048,-104.39286,-9.8336167)"
       x1="40.716122"
       y1="91.15094"
       x2="40.716122"
       y2="7.2913489" />
    <linearGradient
       inkscape:collect="always"
       xlink:href="#ButtonShadow-1"
       id="linearGradient6956"
       gradientUnits="userSpaceOnUse"
       gradientTransform="matrix(1.0238095,0,0,1.0119048,-104.39286,-9.8336167)"
       x1="40.716122"
       y1="91.15094"
       x2="40.716122"
       y2="7.2913489" />
    <linearGradient
       inkscape:collect="always"
       xlink:href="#ButtonShadow-1"
       id="linearGradient6958"
       gradientUnits="userSpaceOnUse"
       gradientTransform="scale(1.0058652,0.994169)"
       x1="45.447727"
       y1="92.539597"
       x2="45.447727"
       y2="7.0165396" />
    <linearGradient
       inkscape:collect="always"
       xlink:href="#ButtonShadow-1"
       id="linearGradient6961"
       gradientUnits="userSpaceOnUse"
       gradientTransform="matrix(1.0058652,0,0,0.994169,-103.25,-9.7502834)"
       x1="45.447727"
       y1="92.539597"
       x2="45.447727"
       y2="7.0165396" />
  </defs>
  <metadata
     id="metadata2413">
    <rdf:RDF>
      <cc:Work
         rdf:about="">
        <dc:format>image/svg+xml</dc:format>
        <dc:type
           rdf:resource="http://purl.org/dc/dcmitype/StillImage" />
        <dc:title></dc:title>
      </cc:Work>
    </rdf:RDF>
  </metadata>
  <g
     id="layer2"
     style="display:none">
    <rect
       width="86"
       height="85"
       rx="6"
       ry="6"
       x="5"
       y="7"
       id="rect3745"
       style="opacity:0.9;fill:url(#ButtonShadow);fill-opacity:1;fill-rule:nonzero;stroke:none;filter:url(#filter3174)" />
  </g>
  <rect
     style="fill:#c71e1a;fill-opacity:1;fill-rule:evenodd;stroke:none"
     id="rect3941"
     width="96"
     height="96"
     x="0"
     y="-7.1054274e-15"
     ry="0" />
  <rect
     style="opacity:0.9;fill:url(#linearGradient4391);fill-opacity:1;fill-rule:nonzero;stroke:none;display:none;filter:url(#filter3174-0)"
     id="rect3745-0"
     y="3.0838468"
     x="-127.84359"
     ry="6"
     rx="6"
     height="85"
     width="86" />
  <path
     style="opacity:0.9;fill:url(#linearGradient6961);fill-opacity:1;fill-rule:nonzero;stroke:none;display:none;filter:url(#filter3174-6)"
     id="rect3745-9"
     inkscape:connector-curvature="0"
     d="m -92.25,-2.7502834 c -2.884094,0 -5.26001,2.0142918 -5.84375,4.71875 2.508553,0.0336 4.53125,2.077266 4.53125,4.59375 0,2.53742 -2.056331,4.5937504 -4.59375,4.5937504 -0.0314,0 -0.0625,6.28e-4 -0.09375,0 l 0,7.15625 c 0.03125,-6.28e-4 0.06235,0 0.09375,0 2.537419,0 4.59375,2.056331 4.59375,4.59375 0,2.53742 -2.056331,4.593749 -4.59375,4.59375 -0.0314,0 -0.0625,6.28e-4 -0.09375,0 l 0,7.15625 c 0.03125,-6.28e-4 0.06235,0 0.09375,0 2.537419,0 4.59375,2.056331 4.59375,4.59375 0,2.53742 -2.056331,4.593749 -4.59375,4.59375 -0.0314,0 -0.0625,6.28e-4 -0.09375,0 l 0,7.15625 c 0.03125,-6.28e-4 0.06235,0 0.09375,0 2.537419,0 4.59375,2.056331 4.59375,4.59375 0,2.53742 -2.056331,4.593753 -4.59375,4.59375 -0.0314,0 -0.0625,6.28e-4 -0.09375,0 l 0,7.15625 c 0.03125,-6.28e-4 0.06235,0 0.09375,0 2.537419,-4e-6 4.59375,2.056332 4.59375,4.59375 0,2.537416 -2.056331,4.593753 -4.59375,4.59375 -0.0314,0 -0.0625,6.28e-4 -0.09375,0 0.144386,3.193855 2.769254,5.71875 6,5.71875 l 0.21875,0 c -6.28e-4,-0.03125 0,-0.06235 0,-0.09375 0,-2.53742 2.05633,-4.593748 4.59375,-4.59375 2.53742,0 4.59375,2.056327 4.59375,4.59375 0,0.0314 6.28e-4,0.0625 0,0.09375 l 7.15625,0 c -6.28e-4,-0.03125 0,-0.06235 0,-0.09375 0,-2.53742 2.056329,-4.593748 4.59375,-4.59375 2.53742,0 4.593752,2.056327 4.59375,4.59375 0,0.0314 6.28e-4,0.0625 0,0.09375 l 7.15625,0 c -6.28e-4,-0.03125 0,-0.06235 0,-0.09375 0,-2.53742 2.056329,-4.593748 4.59375,-4.59375 2.53742,0 4.593748,2.056327 4.59375,4.59375 0,0.0314 6.28e-4,0.0625 0,0.09375 l 7.15625,0 c -6.28e-4,-0.03125 0,-0.06235 0,-0.09375 0,-2.53742 2.056333,-4.593748 4.59375,-4.59375 2.53742,0 4.593749,2.056327 4.59375,4.59375 0,0.0314 6.28e-4,0.0625 0,0.09375 l 7.15625,0 c -6.28e-4,-0.03125 0,-0.06235 0,-0.09375 -5e-6,-2.53742 2.056334,-4.593748 4.59375,-4.59375 2.537416,0 4.593749,2.056327 4.59375,4.59375 0,0.01047 7e-5,0.0208 0,0.03125 2.865173,-0.366463 5.086108,-2.72217 5.21875,-5.65625 -0.03125,6.28e-4 -0.06235,0 -0.09375,0 -2.53742,-3e-6 -4.593748,-2.05633 -4.59375,-4.59375 0,-2.537423 2.056327,-4.593752 4.59375,-4.59375 0.0314,0 0.0625,-6.28e-4 0.09375,0 l 0,-7.15625 c -0.03125,6.28e-4 -0.06235,0 -0.09375,0 -2.53742,1e-6 -4.593748,-2.056331 -4.59375,-4.59375 0,-2.537419 2.056327,-4.593749 4.59375,-4.59375 0.0314,0 0.0625,-6.28e-4 0.09375,0 l 0,-7.15625 c -0.03125,6.28e-4 -0.06235,0 -0.09375,0 -2.53742,1e-6 -4.593748,-2.056331 -4.59375,-4.59375 0,-2.537419 2.056327,-4.593749 4.59375,-4.59375 0.0314,0 0.0625,-6.28e-4 0.09375,0 l 0,-7.15625 c -0.03125,6.28e-4 -0.06235,0 -0.09375,0 -2.53742,1e-6 -4.593748,-2.056331 -4.59375,-4.59375 0,-2.537419 2.056327,-4.593749 4.59375,-4.59375 0.0314,0 0.0625,-6.28e-4 0.09375,0 l 0,-7.15625 c -0.03125,6.28e-4 -0.06235,0 -0.09375,0 -2.53742,10e-7 -4.593748,-2.0563324 -4.59375,-4.5937504 0,-2.516483 2.022694,-4.560154 4.53125,-4.59375 -0.537373,-2.4896403 -2.580279,-4.400576 -5.15625,-4.6875 -0.428865,2.094046 -2.279755,3.65625 -4.5,3.65625 -2.230714,0 -4.082641,-1.5787033 -4.5,-3.6875 l -7.34375,0 c -0.417358,2.1087966 -2.269287,3.6875 -4.5,3.6875 -2.23071,0 -4.082641,-1.5787033 -4.5,-3.6875 l -7.34375,0 c -0.417359,2.1087966 -2.269291,3.6875 -4.5,3.6875 -2.23071,0 -4.082641,-1.5787033 -4.5,-3.6875 l -7.34375,0 c -0.417359,2.1087966 -2.269291,3.6875 -4.5,3.6875 -2.23071,0 -4.082641,-1.5787033 -4.5,-3.6875 l -7.34375,0 c -0.417359,2.1087966 -2.269291,3.6875 -4.5,3.6875 -2.23071,0 -4.082641,-1.5787033 -4.5,-3.6875 l -0.3125,0 z" />
  <path
     style="fill:#ffffff;fill-opacity:1;stroke:none;display:inline"
     id="path3307"
     inkscape:connector-curvature="0"
     d="m 31.838284,21.055439 -11.018373,48.453104 8.952427,0 5.200449,-21.683269 24.437931,0 -22.885961,20.309085 5.966056,6.810202 3.055877,-1.560987 c 5.778868,-2.9455 8.202566,-1.223206 12.586972,-0.01699 4.265372,1.173474 8.275228,2.429384 16.594503,-2.324486 L 73.07605,62.651462 c -9.079254,6.39951 -11.951588,0.689889 -18.418078,0.463254 l 18.513284,-15.52955 2.008833,-8.290084 -38.77951,0 2.496349,-9.949559 25.417981,0 1.743142,-8.290084 -34.219767,0 z" />
</svg>
