<?xml version="1.0" encoding="UTF-8" standalone="no"?>
<!-- Created with Inkscape (http://www.inkscape.org/) -->

<svg
   xmlns:dc="http://purl.org/dc/elements/1.1/"
   xmlns:cc="http://creativecommons.org/ns#"
   xmlns:rdf="http://www.w3.org/1999/02/22-rdf-syntax-ns#"
   xmlns:svg="http://www.w3.org/2000/svg"
   xmlns="http://www.w3.org/2000/svg"
   xmlns:sodipodi="http://sodipodi.sourceforge.net/DTD/sodipodi-0.dtd"
   xmlns:inkscape="http://www.inkscape.org/namespaces/inkscape"
   width="96"
   height="96"
   id="svg2985"
   version="1.1"
   inkscape:version="0.48.4 r9939"
   sodipodi:docname="firefox.svg">
  <defs
     id="defs2987" />
  <sodipodi:namedview
     id="base"
     pagecolor="#ffffff"
     bordercolor="#666666"
     borderopacity="1.0"
     inkscape:pageopacity="0.0"
     inkscape:pageshadow="2"
     inkscape:zoom="2.8284273"
     inkscape:cx="34.548813"
     inkscape:cy="53.643871"
     inkscape:current-layer="layer1"
     showgrid="true"
     inkscape:grid-bbox="true"
     inkscape:document-units="px"
     inkscape:window-width="1366"
     inkscape:window-height="726"
     inkscape:window-x="0"
     inkscape:window-y="20"
     inkscape:window-maximized="1"
     showguides="true"
     inkscape:guide-bbox="true" />
  <metadata
     id="metadata2990">
    <rdf:RDF>
      <cc:Work
         rdf:about="">
        <dc:format>image/svg+xml</dc:format>
        <dc:type
           rdf:resource="http://purl.org/dc/dcmitype/StillImage" />
        <dc:title />
      </cc:Work>
    </rdf:RDF>
  </metadata>
  <g
     id="layer1"
     inkscape:label="Layer 1"
     inkscape:groupmode="layer"
     transform="translate(0,48)">
    <rect
       style="fill:#e9450f;fill-opacity:1;fill-rule:evenodd;stroke:none"
       id="rect2993"
       width="95.975555"
       height="95.977341"
       x="0.0049941456"
       y="-47.968784" />
    <path
       style="fill:#00b61e;fill-opacity:1;stroke:none"
       d=""
       id="path2988"
       inkscape:connector-curvature="0" />
    <path
       id="path2988-5"
       d="m 48.291615,35.440031 c -15.783329,0 -28.299252,-9.235279 -34.069841,-22.401361 C 7.8071338,-1.5964282 12.92834,-25.076191 24.385993,-35.440031 l -0.445968,11.446916 c 0.597162,-0.722586 4.954144,-0.91848 5.665337,0.0076 2.332242,-4.516877 9.972067,-7.90541 16.11029,-8.013776 -2.336633,1.939332 -7.734036,9.069216 -7.250106,12.727571 2.974459,0.915193 7.544663,0.95636 9.946611,1.118836 0.728385,0.400488 0.614349,2.924579 -0.866114,4.959557 -1.931553,2.655269 -7.100083,3.585669 -7.100083,3.585669 l 0.603814,7.7255273 -5.670605,-2.7395766 c -1.837995,4.6240016 2.57538,8.7683227 7.162189,7.9838715 5.041624,-0.8623267 6.836394,-4.152292 10.380293,-3.9467484 3.543967,0.2056296 4.933442,2.1464166 4.465674,3.9905473 C 56.83303,5.5917244 53.00423,5.240084 53.00423,5.240084 c -3.205234,5.10865 -7.484244,7.331259 -14.436061,6.741094 10.551966,8.707044 24.731138,0.798707 28.324775,-6.324301 3.593637,-7.1230142 0.4704,-17.65898 -3.148254,-20.663337 4.258824,1.822342 7.205416,3.726507 8.735104,7.828635 0.84103,-9.132907 -3.379685,-19.494845 -10.898014,-25.564242 14.130096,4.095038 22.751091,15.041218 22.99269,32.5147573 C 84.816151,17.246158 69.106473,35.439948 48.291615,35.439948 z"
       inkscape:connector-curvature="0"
       style="fill:#ffffff;fill-opacity:1;stroke:none" />
    <path
       style="fill:#ffffff;fill-opacity:0;stroke:none"
       d="m 0.22741036,47.926957 0,-47.87499791 47.87499764,0 47.874998,0 0,47.87499791 0,47.874997 -47.874998,0 -47.87499764,0 0,-47.874997 z M 54.602408,82.94707 C 65.45683,80.89529 74.584187,74.294783 80.203559,64.433441 83.684231,58.325269 85.113256,51.739809 84.500609,44.631094 83.384979,31.686142 77.857204,22.670693 67.977407,17.682797 c -1.97348,-0.996327 -6.5,-2.747018 -6.5,-2.513959 0,0.05655 0.877905,0.981511 1.950903,2.055469 5.440779,5.445657 8.559214,12.566248 8.956354,20.450823 l 0.138608,2.751827 -0.573193,-1.125 c -0.955685,-1.875715 -3.309635,-4.00108 -5.910172,-5.336252 -1.271875,-0.653008 -2.3125,-1.126715 -2.3125,-1.05268 0,0.07403 0.411003,0.669955 0.91334,1.32427 2.22815,2.90226 3.30709,6.350065 3.501645,11.189662 0.158575,3.944625 -0.12904,5.577555 -1.439712,8.173984 -1.433305,2.83936 -5.55365,6.518415 -9.013323,8.04799 -3.295457,1.456975 -5.365184,1.91978 -8.586949,1.9201 -3.592182,2.5e-4 -6.376505,-0.913988 -9.852,-3.235305 -0.233615,-0.156032 0.396985,-0.240312 1.875,-0.250595 4.71831,-0.03282 8.22939,-1.731852 10.852,-5.251342 1.06594,-1.43047 1.1812,-1.510253 2.19553,-1.51978 1.328777,-0.01248 2.67761,-0.555885 3.034347,-1.222453 0.148567,-0.2776 0.270122,-0.953492 0.270122,-1.501982 0,-1.426815 -0.911792,-2.42333 -2.690394,-2.940385 -2.223278,-0.646322 -3.56132,-0.379747 -6.853668,1.365448 -3.420634,1.813197 -5.301842,2.400977 -7.092792,2.216134 -2.256187,-0.232859 -4.514247,-1.780719 -5.283469,-3.621732 -0.359133,-0.859525 -0.50408,-3.320635 -0.22241,-3.776385 0.09637,-0.155927 1.249757,0.278995 2.940772,1.108918 1.53022,0.751005 2.80912,1.336645 2.842002,1.301425 0.03288,-0.03522 -0.07243,-1.777695 -0.23403,-3.872165 l -0.293815,-3.808122 2.006403,-0.642838 c 2.754082,-0.882387 4.571934,-2.146697 5.454519,-3.793602 0.730765,-1.36361 1.1098,-3.46421 0.726485,-4.026155 -0.151557,-0.222185 -1.310897,-0.405222 -3.574457,-0.564335 -3.442535,-0.241985 -6.190025,-0.655532 -6.55935,-0.9873 -0.341887,-0.307122 0.537885,-3.243287 1.49594,-4.992569 1.156205,-2.111078 2.749465,-4.340957 4.363308,-6.10676 0.71003,-0.776886 1.24588,-1.457604 1.190775,-1.512708 -0.19584,-0.195841 -3.825585,0.372105 -5.69336,0.89084 -3.811982,1.058697 -7.856177,3.519817 -9.651267,5.873337 -0.61345,0.804288 -0.878338,0.978229 -1.261355,0.828285 -0.697113,-0.272907 -3.345337,-0.265901 -4.312257,0.01141 l -0.824122,0.236355 0.128977,-1.048855 c 0.289456,-2.353892 0.434246,-10.173854 0.188373,-10.173854 -0.447748,0 -3.024994,3.060446 -4.819582,5.723191 -5.188921,7.699131 -8.020138,17.490558 -8.03174,27.776808 -0.008,7.104694 0.951777,11.552174 3.676302,17.035249 1.752163,3.526207 4.00209,6.599047 7.125649,9.731854 6.11581,6.13392 12.46896,9.171882 22.133564,10.583875 1.484905,0.216945 8.292342,-0.08581 10.25,-0.455865 z"
       id="path3754"
       inkscape:connector-curvature="0"
       transform="translate(0,-48)" />
  </g>
</svg>
