<?xml version="1.0" encoding="UTF-8" standalone="no"?>
<!-- Created with Inkscape (http://www.inkscape.org/) -->

<svg
   xmlns:dc="http://purl.org/dc/elements/1.1/"
   xmlns:cc="http://creativecommons.org/ns#"
   xmlns:rdf="http://www.w3.org/1999/02/22-rdf-syntax-ns#"
   xmlns:svg="http://www.w3.org/2000/svg"
   xmlns="http://www.w3.org/2000/svg"
   xmlns:xlink="http://www.w3.org/1999/xlink"
   xmlns:sodipodi="http://sodipodi.sourceforge.net/DTD/sodipodi-0.dtd"
   xmlns:inkscape="http://www.inkscape.org/namespaces/inkscape"
   version="1.0"
   width="96"
   height="96"
   id="svg2408"
   inkscape:version="0.48.4 r9939"
   sodipodi:docname="inkscape.svg">
  <sodipodi:namedview
     pagecolor="#ffffff"
     bordercolor="#666666"
     borderopacity="1"
     objecttolerance="10"
     gridtolerance="10"
     guidetolerance="10"
     inkscape:pageopacity="0"
     inkscape:pageshadow="2"
     inkscape:window-width="1366"
     inkscape:window-height="726"
     id="namedview161"
     showgrid="false"
     showguides="true"
     inkscape:guide-bbox="true"
     inkscape:zoom="3.4766084"
     inkscape:cx="16.819246"
     inkscape:cy="55.831729"
     inkscape:window-x="0"
     inkscape:window-y="20"
     inkscape:window-maximized="1"
     inkscape:current-layer="svg2408" />
  <defs
     id="defs2410">
    <filter
       color-interpolation-filters="sRGB"
       id="filter3751">
      <feGaussianBlur
         id="feGaussianBlur3753"
         stdDeviation="0.79380238" />
    </filter>
    <linearGradient
       id="linearGradient3674">
      <stop
         id="stop3676"
         style="stop-color:#000000;stop-opacity:1"
         offset="0" />
      <stop
         id="stop3678"
         style="stop-color:#000000;stop-opacity:0"
         offset="1" />
    </linearGradient>
    <linearGradient
       id="linearGradient3411">
      <stop
         id="stop3413"
         style="stop-color:#797979;stop-opacity:1"
         offset="0" />
      <stop
         id="stop3423"
         style="stop-color:#a1a1a1;stop-opacity:1"
         offset="0.21906407" />
      <stop
         id="stop3419"
         style="stop-color:#cdcdcd;stop-opacity:1"
         offset="0.34999999" />
      <stop
         id="stop3421"
         style="stop-color:#9b9b9b;stop-opacity:1"
         offset="0.47209707" />
      <stop
         id="stop3415"
         style="stop-color:#373737;stop-opacity:1"
         offset="1" />
    </linearGradient>
    <filter
       x="-0.66366285"
       y="-0.038064804"
       width="2.3273256"
       height="1.0761296"
       color-interpolation-filters="sRGB"
       id="filter3526">
      <feGaussianBlur
         id="feGaussianBlur3528"
         stdDeviation="0.98809091" />
    </filter>
    <linearGradient
       id="linearGradient3509">
      <stop
         id="stop3511"
         style="stop-color:#ad1616;stop-opacity:1"
         offset="0" />
      <stop
         id="stop3513"
         style="stop-color:#4d0a0a;stop-opacity:1"
         offset="1" />
    </linearGradient>
    <linearGradient
       id="linearGradient3501">
      <stop
         id="stop3503"
         style="stop-color:#9a3030;stop-opacity:1"
         offset="0" />
      <stop
         id="stop3505"
         style="stop-color:#5b1c1c;stop-opacity:1"
         offset="1" />
    </linearGradient>
    <linearGradient
       id="BlackTransparent"
       gradientUnits="userSpaceOnUse">
      <stop
         id="stop12"
         style="stop-color:#000000;stop-opacity:1"
         offset="0" />
      <stop
         id="stop14"
         style="stop-color:#000000;stop-opacity:0"
         offset="1" />
    </linearGradient>
    <linearGradient
       id="linearGradient3581">
      <stop
         id="stop3583"
         style="stop-color:#ffffff;stop-opacity:1"
         offset="0" />
      <stop
         id="stop3585"
         style="stop-color:#ffffff;stop-opacity:0"
         offset="1" />
    </linearGradient>
    <linearGradient
       id="linearGradient3599">
      <stop
         id="stop3601"
         style="stop-color:#000000;stop-opacity:0.41960785"
         offset="0" />
      <stop
         id="stop3603"
         style="stop-color:#98713b;stop-opacity:0"
         offset="1" />
    </linearGradient>
    <linearGradient
       id="linearGradient3187">
      <stop
         id="stop3189"
         style="stop-color:#bd9c5b;stop-opacity:1"
         offset="0" />
      <stop
         id="stop3191"
         style="stop-color:#fadd96;stop-opacity:1"
         offset="1" />
    </linearGradient>
    <linearGradient
       x1="45.447727"
       y1="92.539597"
       x2="45.447727"
       y2="7.0165396"
       id="ButtonShadow"
       gradientUnits="userSpaceOnUse"
       gradientTransform="scale(1.0058652,0.994169)">
      <stop
         id="stop3750"
         style="stop-color:#000000;stop-opacity:1"
         offset="0" />
      <stop
         id="stop3752"
         style="stop-color:#000000;stop-opacity:0.58823532"
         offset="1" />
    </linearGradient>
    <linearGradient
       id="linearGradient3737">
      <stop
         id="stop3739"
         style="stop-color:#ffffff;stop-opacity:1"
         offset="0" />
      <stop
         id="stop3741"
         style="stop-color:#ffffff;stop-opacity:0"
         offset="1" />
    </linearGradient>
    <linearGradient
       x1="35.289513"
       y1="132.69209"
       x2="122.40135"
       y2="71.475204"
       id="linearGradient3743"
       xlink:href="#linearGradient3674"
       gradientUnits="userSpaceOnUse"
       gradientTransform="matrix(0.7096226,0,0,0.7096226,-0.821028,0.1362159)" />
    <filter
       color-interpolation-filters="sRGB"
       id="filter3174">
      <feGaussianBlur
         id="feGaussianBlur3176"
         stdDeviation="1.71" />
    </filter>
    <linearGradient
       x1="66.300034"
       y1="62.345222"
       x2="83.323959"
       y2="117.09522"
       id="linearGradient3698"
       xlink:href="#linearGradient3599"
       gradientUnits="userSpaceOnUse"
       gradientTransform="matrix(0.7669902,0,0,0.7669902,-0.8145051,-3.739269)" />
    <linearGradient
       x1="41.530895"
       y1="65.389084"
       x2="62.394035"
       y2="68.389084"
       id="linearGradient3701"
       xlink:href="#linearGradient3599"
       gradientUnits="userSpaceOnUse"
       gradientTransform="matrix(0.7669902,0,0,0.7669902,-0.8145051,-3.739269)" />
    <linearGradient
       x1="59.710438"
       y1="23.204762"
       x2="74.153046"
       y2="43.247578"
       id="linearGradient3703"
       xlink:href="#linearGradient3581"
       gradientUnits="userSpaceOnUse"
       gradientTransform="matrix(0.7669902,0,0,0.7669902,-0.8145051,-3.739269)" />
    <linearGradient
       x1="62.75"
       y1="96.26342"
       x2="49"
       y2="82.75"
       id="linearGradient3705"
       xlink:href="#linearGradient3599"
       gradientUnits="userSpaceOnUse"
       gradientTransform="matrix(0.7669902,0,0,0.7669902,-0.8145051,-3.739269)" />
    <linearGradient
       x1="62.75"
       y1="96.26342"
       x2="49"
       y2="82.75"
       id="linearGradient3707"
       xlink:href="#linearGradient3599"
       gradientUnits="userSpaceOnUse"
       gradientTransform="matrix(0.3856985,0.7985247,0.8841857,-0.1651513,-36.612561,11.165888)" />
    <linearGradient
       x1="57.900513"
       y1="106.70871"
       x2="114.43932"
       y2="49.359089"
       id="linearGradient3873"
       xlink:href="#linearGradient3674"
       gradientUnits="userSpaceOnUse"
       gradientTransform="matrix(0.9321948,-0.361957,0.361957,0.9321948,-40.79504,-6.6951772)" />
    <filter
       color-interpolation-filters="sRGB"
       id="filter3905">
      <feGaussianBlur
         id="feGaussianBlur3907"
         stdDeviation="0.59517855" />
    </filter>
    <linearGradient
       x1="144.82578"
       y1="95.798721"
       x2="144.82578"
       y2="108.34345"
       id="linearGradient3969"
       xlink:href="#linearGradient3581"
       gradientUnits="userSpaceOnUse"
       gradientTransform="matrix(1,0,0,1.1160733,0.0625,-9.9986727)" />
    <linearGradient
       x1="144.82578"
       y1="95.798721"
       x2="144.82578"
       y2="108.34345"
       id="linearGradient3971"
       xlink:href="#linearGradient3581"
       gradientUnits="userSpaceOnUse"
       gradientTransform="matrix(-1,0,0,1.1160733,289.71406,-9.9986727)" />
    <linearGradient
       x1="144.87347"
       y1="97.697334"
       x2="144.87347"
       y2="99.774651"
       id="linearGradient3973"
       xlink:href="#BlackTransparent"
       gradientUnits="userSpaceOnUse" />
    <linearGradient
       x1="131.29102"
       y1="77.089378"
       x2="153.84979"
       y2="77.089378"
       id="linearGradient3975"
       xlink:href="#linearGradient3501"
       gradientUnits="userSpaceOnUse" />
    <linearGradient
       x1="131.29102"
       y1="77.089378"
       x2="153.84979"
       y2="77.089378"
       id="linearGradient3977"
       xlink:href="#linearGradient3509"
       gradientUnits="userSpaceOnUse" />
    <linearGradient
       x1="140"
       y1="88"
       x2="150"
       y2="88"
       id="linearGradient3979"
       xlink:href="#linearGradient3411"
       gradientUnits="userSpaceOnUse" />
    <linearGradient
       x1="197.9899"
       y1="62.225395"
       x2="212.13203"
       y2="62.225395"
       id="linearGradient3981"
       xlink:href="#linearGradient3737"
       gradientUnits="userSpaceOnUse"
       gradientTransform="scale(0.7071068,1.4142136)" />
    <linearGradient
       x1="141"
       y1="81.75"
       x2="149"
       y2="81.75"
       id="linearGradient3983"
       xlink:href="#BlackTransparent"
       gradientUnits="userSpaceOnUse"
       gradientTransform="matrix(1.247211,0,0,1,-35.862183,0)" />
    <linearGradient
       x1="141"
       y1="81.75"
       x2="149"
       y2="81.75"
       id="linearGradient3985"
       xlink:href="#linearGradient3581"
       gradientUnits="userSpaceOnUse"
       gradientTransform="matrix(1.247211,0,0,-1,-35.862183,164.98438)" />
    <linearGradient
       id="linearGradient3737-0">
      <stop
         id="stop3739-6"
         style="stop-color:#ffffff;stop-opacity:1"
         offset="0" />
      <stop
         id="stop3741-1"
         style="stop-color:#ffffff;stop-opacity:0"
         offset="1" />
    </linearGradient>
    <filter
       x="-0.192"
       y="-0.192"
       width="1.3839999"
       height="1.3839999"
       color-interpolation-filters="sRGB"
       id="filter3794">
      <feGaussianBlur
         id="feGaussianBlur3796"
         stdDeviation="5.28" />
    </filter>
    <linearGradient
       x1="48"
       y1="20.220806"
       x2="48"
       y2="138.66119"
       id="linearGradient2908"
       xlink:href="#linearGradient3737-0"
       gradientUnits="userSpaceOnUse"
       gradientTransform="translate(-40,0)" />
    <linearGradient
       x1="89.740349"
       y1="43.16214"
       x2="12.564733"
       y2="43.16214"
       id="linearGradient2969"
       xlink:href="#linearGradient3187"
       gradientUnits="userSpaceOnUse"
       gradientTransform="matrix(0,1,1,0,0,0)" />
    <clipPath
       id="clipPath2977">
      <path
         d="m -28,6 c -3.324,0 -6,2.676 -6,6 l 0,33.21875 c 2.18571,0.12257 4.56375,0.238058 5.75,0.4375 0.64556,0.108538 -0.10827,0.242057 -1.125,0.34375 -1.01673,0.101693 -2.31358,0.197367 -2.8125,0.28125 -0.60768,0.102166 -1.20065,0.155127 -1.8125,0.25 l 0,1.03125 c 0.37152,0.03564 0.69223,0.03125 0.90625,0.03125 0.79002,10e-7 1.13227,0.219783 1.28125,0.5625 0.14898,0.342717 0.09375,0.815139 0.09375,1.375 0,0.41983 -0.91575,0.671391 -1.125,1.375 -0.07478,0.251474 -0.61801,0.51087 -1.15625,0.75 l 0,2.1875 c 0.71848,0.02468 1.41156,0.05972 1.8125,0.3125 0.27517,0.173491 -0.76856,0.376316 -1.8125,0.5625 l 0,7.5 c 1.1115,0.178216 3.23164,0.89604 3.875,1.03125 1.0648,0.223782 1.18534,0.335965 0.84375,0.4375 -0.34159,0.101535 -1.1303,0.176786 -1.9375,0.3125 -0.95534,0.160617 -1.89421,0.456871 -2.78125,0.65625 L -34,84 c 0,3.324 2.676,6 6,6 l 12.5625,0 c 0.09318,-0.433081 0.15326,-0.905883 0.25,-1.40625 0.1371,-0.709071 0.22652,-1.344555 0.34375,-1.59375 0.02931,-0.0623 0.05898,-0.11418 0.09375,-0.125 0.10432,-0.03246 0.24356,0.19889 0.46875,0.78125 0.29726,0.768719 0.51235,1.624099 0.65625,2.34375 l 0.75,0 c 0.26973,-0.487886 0.55273,-1.110762 0.78125,-1.40625 0.09677,-0.125139 0.28119,0.103115 0.53125,0.34375 0.25006,0.240635 0.56576,0.485066 0.90625,0.375 0.63353,-0.20479 1.58152,-0.698195 2,-0.96875 0.13663,-0.08833 0.27138,-0.158324 0.375,-0.1875 0.10362,-0.02918 0.17609,-0.01753 0.25,0 0.14782,0.03506 0.23479,0.146168 0.34375,0.28125 0.21791,0.270164 0.44939,0.625 1.03125,0.625 0.46722,0 0.66007,-0.03138 0.78125,0.0625 0.12118,0.09388 0.1707,0.321145 0.375,0.875 l 8.6875,0 C 3.14083,89.413108 4.20094,87.869015 4.375,86.96875 4.56148,86.004238 4.59064,85.759698 4.65625,85.9375 c 0.06561,0.177802 0.16768,0.770965 0.4375,1.46875 0.10788,0.278977 0.21618,0.357332 0.3125,0.28125 0.09632,-0.07608 0.17078,-0.297106 0.25,-0.5625 0.15844,-0.530788 0.287,-1.268952 0.34375,-1.5625 0.12808,-0.662448 0.09732,-1.761071 0.09375,-2.25 -8.9e-4,-0.122232 -0.0058,-0.218192 0,-0.25 0.01738,-0.09543 0.08534,0.295908 0.28125,1.5625 0.16001,1.034452 0.55165,2.666984 0.71875,3.53125 0.16585,0.857781 0.26937,1.297378 0.375,1.84375 l 27.5625,0 c 0.03787,-0.489133 0.03582,-1.072063 0.0625,-1.46875 0.02001,-0.297515 0.06858,-0.486789 0.15625,-0.46875 0.02922,0.006 0.05177,0.03947 0.09375,0.09375 0.22802,0.29483 0.60721,1.142012 0.9375,1.84375 L 44,90 c 3.324,0 6,-2.676 6,-6 l 0,-7.0625 c -0.16548,0.0045 -0.29499,0 -0.5,0 -1.29937,0 -2.57564,0 -3.875,0 -1.19804,0 -1.996,-0.0017 -2.1875,-0.0625 -0.1915,-0.06081 0.23046,-0.186909 1.4375,-0.5 0.6398,-0.165955 3.26183,-0.901716 5.125,-1.3125 l 0,-37.96875 c -0.63757,-0.263204 -1.18841,-0.49357 -1.71875,-0.90625 -0.1392,-0.108324 -0.42969,-0.363223 -0.9375,-0.53125 -0.50781,-0.168027 -1.23505,-0.253867 -2.21875,-0.0625 -1.49781,0.291384 -1.64422,0.281974 -1.21875,0.15625 0.42547,-0.125724 1.42431,-0.382779 2.1875,-0.53125 C 47.21966,34.999712 48.75193,34.038229 50,33.40625 L 50,28.875 C 49.31793,28.620057 48.60142,28.342045 48.28125,27.84375 48.07642,27.524969 47.99109,27.329414 48,27.21875 c 0.0089,-0.110664 0.10446,-0.149576 0.21875,-0.1875 0.11429,-0.03792 0.26368,-0.05569 0.375,-0.15625 0.11132,-0.100562 0.1875,-0.295173 0.1875,-0.59375 0,-0.319121 0.082,-0.861922 0.0625,-1.375 -0.0097,-0.256539 -0.03769,-0.499478 -0.125,-0.6875 -0.08731,-0.188022 -0.22417,-0.333499 -0.4375,-0.375 -0.56121,-0.109178 -0.81824,-0.234978 -0.875,-0.34375 -0.05676,-0.108772 0.07694,-0.190451 0.28125,-0.28125 0.40861,-0.181598 1.10111,-0.308199 1.09375,-0.3125 -0.65315,-0.381187 -5.11642,-0.921785 -4.875,-0.96875 0.32484,-0.06319 0.64392,-0.124305 0.96875,-0.1875 1.02328,-0.199069 2.36966,-0.312207 3.65625,-0.5625 C 49.09118,21.07857 49.41673,20.934731 49.625,20.75 49.83327,20.565269 49.92108,20.35562 50,20.15625 L 50,12 C 50,8.676 47.324,6 44,6 L -6.03125,6 C -5.93692,7.381129 -5.83654,8.919032 -6.125,8.15625 -6.33053,7.612767 -6.45072,7.043483 -6.65625,6.5 -6.70825,6.362498 -6.75371,6.168523 -6.8125,6 l -1.96875,0 c -0.2351,0.486521 -0.45735,0.973378 -0.78125,1.1875 -0.49514,0.327333 -0.76026,0.462326 -1,0.375 C -10.80224,7.47517 -11.01662,7.16134 -11.375,6.6875 -11.53494,6.476035 -11.81687,6.253022 -12.125,6 L -18.78125,6 -20.0625,11.5 -21.75,6 -21.96875,6 -23.6875,14.84375 -25.0625,6 -28,6 z"
         inkscape:connector-curvature="0"
         id="path2979"
         style="fill:#ffffff;fill-opacity:1;fill-rule:nonzero;stroke:none;display:inline" />
    </clipPath>
    <linearGradient
       x1="7.9999752"
       y1="46.000019"
       x2="87.999977"
       y2="46.000019"
       id="linearGradient3125"
       xlink:href="#linearGradient3187"
       gradientUnits="userSpaceOnUse"
       gradientTransform="matrix(0,-1,1,0,-110.00002,95.999975)" />
    <linearGradient
       x1="40"
       y1="84"
       x2="40"
       y2="-60"
       id="linearGradient3998-2"
       xlink:href="#linearGradient3992-8"
       gradientUnits="userSpaceOnUse"
       gradientTransform="matrix(-1,0,0,-1,96,92)" />
    <linearGradient
       id="linearGradient3992-8">
      <stop
         id="stop3994-8"
         style="stop-color:#ffffff;stop-opacity:1"
         offset="0" />
      <stop
         id="stop3996-8"
         style="stop-color:#ffffff;stop-opacity:0"
         offset="1" />
    </linearGradient>
    <linearGradient
       x1="55.999901"
       y1="92"
       x2="55.999901"
       y2="12"
       id="linearGradient3950-9"
       xlink:href="#linearGradient3187-1"
       gradientUnits="userSpaceOnUse"
       gradientTransform="translate(1e-4,-4.0000001)" />
    <linearGradient
       id="linearGradient3187-1">
      <stop
         id="stop3189-3"
         style="stop-color:#bd9c5b;stop-opacity:1"
         offset="0" />
      <stop
         id="stop3191-3"
         style="stop-color:#fadd96;stop-opacity:1"
         offset="1" />
    </linearGradient>
    <linearGradient
       x1="7.9999752"
       y1="46.000019"
       x2="87.999977"
       y2="46.000019"
       id="linearGradient3136-8"
       xlink:href="#linearGradient3187-3"
       gradientUnits="userSpaceOnUse"
       gradientTransform="matrix(0,-1,1,0,-2e-5,95.99998)" />
    <linearGradient
       id="linearGradient3187-3">
      <stop
         id="stop3189-1"
         style="stop-color:#bd9c5b;stop-opacity:1"
         offset="0" />
      <stop
         id="stop3191-1"
         style="stop-color:#fadd96;stop-opacity:1"
         offset="1" />
    </linearGradient>
    <linearGradient
       id="linearGradient3892">
      <stop
         id="stop3894"
         style="stop-color:#000000;stop-opacity:0.58823532"
         offset="0" />
      <stop
         id="stop3896"
         style="stop-color:#000000;stop-opacity:0.47058824"
         offset="0.11780351" />
      <stop
         id="stop3898"
         style="stop-color:#000000;stop-opacity:0.39215687"
         offset="0.23809524" />
      <stop
         id="stop3900"
         style="stop-color:#000000;stop-opacity:0.3137255"
         offset="1" />
    </linearGradient>
    <linearGradient
       x1="6"
       y1="83.578125"
       x2="48"
       y2="83.578125"
       id="linearGradient4520"
       xlink:href="#linearGradient3892"
       gradientUnits="userSpaceOnUse"
       gradientTransform="translate(0,40)"
       spreadMethod="reflect" />
    <filter
       color-interpolation-filters="sRGB"
       id="filter3325-8">
      <feGaussianBlur
         id="feGaussianBlur3327-0"
         stdDeviation="2.32" />
    </filter>
    <linearGradient
       x1="7.9999752"
       y1="46.000019"
       x2="87.999977"
       y2="46.000019"
       id="linearGradient3988"
       xlink:href="#linearGradient3187-3"
       gradientUnits="userSpaceOnUse"
       gradientTransform="matrix(0,-1,1,0,-2e-5,95.99998)" />
    <linearGradient
       x1="89.740349"
       y1="43.16214"
       x2="12.564733"
       y2="43.16214"
       id="linearGradient4040"
       xlink:href="#ButtonShadow"
       gradientUnits="userSpaceOnUse"
       gradientTransform="matrix(0,1,1,0,0,1.0000001)" />
    <linearGradient
       x1="89.740349"
       y1="43.16214"
       x2="7.3446884"
       y2="43.16214"
       id="linearGradient4048"
       xlink:href="#ButtonShadow"
       gradientUnits="userSpaceOnUse"
       gradientTransform="matrix(0,1,1,0,0,1.0000001)" />
    <linearGradient
       x1="89.740349"
       y1="43.16214"
       x2="7.3446884"
       y2="43.16214"
       id="linearGradient4062"
       xlink:href="#ButtonShadow"
       gradientUnits="userSpaceOnUse"
       gradientTransform="matrix(0,1,1,0,0,1.0000001)" />
    <linearGradient
       x1="89.740349"
       y1="43.16214"
       x2="7.3446884"
       y2="43.16214"
       id="linearGradient4070"
       xlink:href="#ButtonShadow"
       gradientUnits="userSpaceOnUse"
       gradientTransform="matrix(0,1,1,0,0,1.0000001)" />
    <linearGradient
       x1="89.740349"
       y1="43.16214"
       x2="7.3446884"
       y2="43.16214"
       id="linearGradient4078"
       xlink:href="#ButtonShadow"
       gradientUnits="userSpaceOnUse"
       gradientTransform="matrix(0,1,1,0,0,1.0000001)" />
    <linearGradient
       x1="86.241219"
       y1="6.0932493"
       x2="86.241219"
       y2="47.657269"
       id="linearGradient4148"
       xlink:href="#linearGradient3892"
       gradientUnits="userSpaceOnUse"
       gradientTransform="matrix(0,1,1,0,0,1e-7)"
       spreadMethod="reflect" />
    <linearGradient
       inkscape:collect="always"
       xlink:href="#BlackTransparent"
       id="linearGradient3299"
       gradientUnits="userSpaceOnUse"
       x1="144.87347"
       y1="97.697334"
       x2="144.87347"
       y2="99.774651"
       gradientTransform="matrix(0.6854428,0.1836639,-0.1836639,0.6854428,53.857608,-30.649134)" />
    <linearGradient
       inkscape:collect="always"
       xlink:href="#linearGradient3581"
       id="linearGradient3302"
       gradientUnits="userSpaceOnUse"
       gradientTransform="matrix(-0.6854428,-0.1836639,-0.2799793,1.0448967,258.94576,-12.658102)"
       x1="144.82578"
       y1="95.798721"
       x2="144.82578"
       y2="108.34345" />
    <linearGradient
       inkscape:collect="always"
       xlink:href="#linearGradient3581"
       id="linearGradient3305"
       gradientUnits="userSpaceOnUse"
       gradientTransform="matrix(0.6854428,0.1836639,-0.20498237,0.76500441,58.99108,-40.338631)"
       x1="144.82578"
       y1="95.798721"
       x2="144.82578"
       y2="108.34345" />
    <linearGradient
       inkscape:collect="always"
       xlink:href="#BlackTransparent"
       id="linearGradient3322"
       gradientUnits="userSpaceOnUse"
       gradientTransform="matrix(1.247211,0,0,1,-35.862183,0)"
       x1="141"
       y1="81.75"
       x2="149"
       y2="81.75" />
    <linearGradient
       inkscape:collect="always"
       xlink:href="#linearGradient3581"
       id="linearGradient3324"
       gradientUnits="userSpaceOnUse"
       gradientTransform="matrix(1.247211,0,0,-1,-35.862183,164.98438)"
       x1="141"
       y1="81.75"
       x2="149"
       y2="81.75" />
    <linearGradient
       inkscape:collect="always"
       xlink:href="#BlackTransparent"
       id="linearGradient3332"
       gradientUnits="userSpaceOnUse"
       gradientTransform="matrix(1.247211,0,0,1,-35.862183,0)"
       x1="141"
       y1="81.75"
       x2="149"
       y2="81.75" />
    <linearGradient
       inkscape:collect="always"
       xlink:href="#linearGradient3581"
       id="linearGradient3334"
       gradientUnits="userSpaceOnUse"
       gradientTransform="matrix(1.247211,0,0,-1,-35.862183,164.98438)"
       x1="141"
       y1="81.75"
       x2="149"
       y2="81.75" />
    <linearGradient
       inkscape:collect="always"
       xlink:href="#linearGradient3581"
       id="linearGradient3337"
       gradientUnits="userSpaceOnUse"
       gradientTransform="matrix(0.92588342,0.24808972,0.1836639,-0.6854428,14.816936,72.483002)"
       x1="141"
       y1="81.75"
       x2="149"
       y2="81.75" />
    <linearGradient
       inkscape:collect="always"
       xlink:href="#BlackTransparent"
       id="linearGradient3340"
       gradientUnits="userSpaceOnUse"
       gradientTransform="matrix(0.92588342,0.24808972,-0.1836639,0.6854428,32.305052,-36.333167)"
       x1="141"
       y1="81.75"
       x2="149"
       y2="81.75" />
    <linearGradient
       inkscape:collect="always"
       xlink:href="#linearGradient3187-3"
       id="linearGradient3342"
       gradientUnits="userSpaceOnUse"
       gradientTransform="matrix(0,-1,1,0,-124.2068,60.909761)"
       x1="7.9999752"
       y1="46.000019"
       x2="87.999977"
       y2="46.000019" />
  </defs>
  <metadata
     id="metadata2413">
    <rdf:RDF>
      <cc:Work
         rdf:about="">
        <dc:format>image/svg+xml</dc:format>
        <dc:type
           rdf:resource="http://purl.org/dc/dcmitype/StillImage" />
        <dc:title />
      </cc:Work>
    </rdf:RDF>
  </metadata>
  <rect
     style="fill:#d3b370;fill-opacity:1;fill-rule:evenodd;stroke:none"
     id="rect3350"
     width="96"
     height="96"
     x="0"
     y="-1.7763568e-15"
     ry="2.249814" />
  <g
     id="layer2"
     style="display:none">
    <path
       d="M 11,7 C 7.676,7 5,9.676 5,13 l 0,33.6875 c 2.2377507,0.124029 4.660506,0.235683 5.875,0.4375 0.66093,0.10983 -0.08406,0.240848 -1.125,0.34375 C 8.7090622,47.571654 7.3545491,47.665119 6.84375,47.75 6.2216014,47.853382 5.6264179,47.903999 5,48 l 0,1.0625 c 0.3803657,0.03607 0.7183843,0.03125 0.9375,0.03125 0.80883,10e-7 1.1599727,0.215701 1.3125,0.5625 0.1525272,0.346797 0.09375,0.839723 0.09375,1.40625 0,0.424828 -0.9420178,0.663014 -1.15625,1.375 C 6.110939,52.691968 5.5510552,52.945524 5,53.1875 l 0,2.21875 c 0.7355867,0.02497 1.4332639,0.05671 1.84375,0.3125 C 7.1254716,55.894306 6.0687957,56.124098 5,56.3125 l 0,7.5625 c 1.1379643,0.180337 3.3100715,0.925679 3.96875,1.0625 1.090152,0.226446 1.224723,0.33476 0.875,0.4375 -0.3497231,0.102744 -1.173581,0.175172 -2,0.3125 C 6.8656638,65.850029 5.90816,66.141998 5,66.34375 L 5,86 c 0,3.324 2.676,6 6,6 l 13,0 c 0.0954,-0.438237 0.150955,-0.931178 0.25,-1.4375 0.140364,-0.717512 0.25498,-1.34159 0.375,-1.59375 0.03001,-0.06304 0.05815,-0.114053 0.09375,-0.125 0.106804,-0.03285 0.238198,0.191956 0.46875,0.78125 0.304338,0.777871 0.540174,1.646782 0.6875,2.375 l 0.75,0 c 0.276152,-0.493694 0.578538,-1.138496 0.8125,-1.4375 0.09907,-0.126629 0.275237,0.131501 0.53125,0.375 0.256014,0.2435 0.588904,0.486378 0.9375,0.375 0.648614,-0.207227 1.602807,-0.726227 2.03125,-1 0.139883,-0.08938 0.300164,-0.157976 0.40625,-0.1875 0.106087,-0.02952 0.174331,-0.01774 0.25,0 0.151339,0.03548 0.232196,0.144559 0.34375,0.28125 0.223098,0.27338 0.466785,0.656251 1.0625,0.65625 0.478344,0 0.657185,-0.0325 0.78125,0.0625 0.124065,0.095 0.197087,0.314551 0.40625,0.875 l 8.875,0 c -0.04778,-0.593879 1.040547,-2.151517 1.21875,-3.0625 0.19092,-0.975995 0.214078,-1.242419 0.28125,-1.0625 0.06717,0.179919 0.192504,0.793906 0.46875,1.5 0.110448,0.282298 0.213887,0.358235 0.3125,0.28125 0.09861,-0.07699 0.168895,-0.293948 0.25,-0.5625 0.162213,-0.537107 0.285649,-1.296709 0.34375,-1.59375 0.131129,-0.670335 0.128655,-1.786501 0.125,-2.28125 -9.11e-4,-0.123687 -0.0059,-0.217815 0,-0.25 0.01779,-0.09656 0.08067,0.312079 0.28125,1.59375 0.163819,1.046767 0.54767,2.687946 0.71875,3.5625 0.169798,0.867992 0.298106,1.322124 0.40625,1.875 l 28.21875,0 c 0.03877,-0.494956 0.03519,-1.098589 0.0625,-1.5 0.02049,-0.301057 0.06649,-0.487005 0.15625,-0.46875 0.02992,0.0061 0.05077,0.03882 0.09375,0.09375 0.233449,0.298339 0.630596,1.164908 0.96875,1.875 L 85,92 c 3.324,0 6,-2.676 6,-6 l 0,-7.21875 c -0.16942,0.0045 -0.290112,-4e-6 -0.5,0 -1.330307,0 -2.638456,-4e-6 -3.96875,0 -1.226564,0 -2.05394,-9.64e-4 -2.25,-0.0625 -0.19606,-0.06154 0.232972,-0.183183 1.46875,-0.5 C 86.405034,78.050819 89.092469,77.290673 91,76.875 L 91,38.46875 C 90.34725,38.202412 89.792969,37.980093 89.25,37.5625 89.107486,37.452886 88.801155,37.170028 88.28125,37 87.761349,36.829972 87.007124,36.743855 86,36.9375 c -1.533473,0.294852 -1.685602,0.283469 -1.25,0.15625 0.4356,-0.127221 1.468635,-0.381012 2.25,-0.53125 1.152717,-0.221645 2.722214,-1.204246 4,-1.84375 l 0,-4.5625 c -0.69831,-0.257978 -1.422206,-0.558272 -1.75,-1.0625 -0.209707,-0.322576 -0.321618,-0.513018 -0.3125,-0.625 0.0091,-0.111981 0.13299,-0.149124 0.25,-0.1875 0.117011,-0.03837 0.261032,-0.05449 0.375,-0.15625 0.11397,-0.101759 0.187497,-0.291619 0.1875,-0.59375 0,-0.32292 0.08246,-0.887065 0.0625,-1.40625 -0.01,-0.259593 -0.03562,-0.49724 -0.125,-0.6875 -0.08939,-0.19026 -0.219089,-0.333004 -0.4375,-0.375 -0.574572,-0.110478 -0.848143,-0.233682 -0.90625,-0.34375 -0.05811,-0.110067 0.07208,-0.18937 0.28125,-0.28125 0.418339,-0.18376 1.132532,-0.339398 1.125,-0.34375 -0.668701,-0.385725 -5.247169,-0.921226 -5,-0.96875 0.332574,-0.06395 0.667437,-0.123553 1,-0.1875 1.047644,-0.201439 2.43278,-0.309227 3.75,-0.5625 0.573261,-0.110227 0.911769,-0.250569 1.125,-0.4375 0.213229,-0.18693 0.294201,-0.423258 0.375,-0.625 L 91,13 C 91,9.676 88.324,7 85,7 L 33.625,7 C 33.72158,8.3975706 33.82658,9.959362 33.53125,9.1875 33.320827,8.6375466 33.210422,8.0499534 33,7.5 32.946762,7.3608606 32.903941,7.1705291 32.84375,7 L 30.8125,7 C 30.571803,7.4923127 30.362863,7.9708281 30.03125,8.1875 29.524321,8.5187294 29.245447,8.6821159 29,8.59375 28.754552,8.5053839 28.523162,8.1669814 28.15625,7.6875 27.992502,7.4735174 27.721718,7.2560338 27.40625,7 l -6.8125,0 -1.3125,5.5625 L 17.53125,7 17.3125,7 15.5625,15.9375 14.15625,7 11,7 z"
       inkscape:connector-curvature="0"
       id="rect3745"
       style="opacity:0.9;fill:url(#ButtonShadow);fill-opacity:1;fill-rule:nonzero;stroke:none;filter:url(#filter3174)" />
  </g>
  <g
     id="g3103"
     transform="translate(1.415642e-7,-6.0437011)">
    <path
       sodipodi:nodetypes="cccccccccccccccccccccccccccccccccccccccccc"
       style="fill:#201b11;fill-opacity:1;fill-rule:nonzero;stroke:none;display:inline"
       id="path3455"
       inkscape:connector-curvature="0"
       d="m 77.123513,48.728451 c 0.257872,0.319933 2.626083,2.494903 0.304339,0.498664 C 72.048814,44.91384 62.29127,37.447037 57.60489,32.387979 c 1.328421,1.309306 2.870821,2.774036 0.629754,0.653845 -2.482077,-2.286636 -4.796113,-4.738349 -7.10177,-7.192434 1.149942,1.045597 3.166953,3.258987 0.91807,0.897631 -2.406959,-2.905793 -7.004162,-2.215033 -9.166769,0.591952 -3.807715,3.355115 -7.297306,7.053768 -10.282526,11.11875 -3.002279,3.357725 -6.96388,5.662177 -10.250162,8.701741 -1.824722,2.451716 -5.797404,5.72838 -3.463981,8.914609 -1.097619,-0.92343 -3.801962,-3.561455 -0.68164,-1.630177 4.223766,1.379101 9.744023,1.532383 12.292966,5.649805 1.297452,3.275264 -3.139256,4.43183 -4.754407,6.523757 -0.351794,2.670127 -2.736476,-1.715583 -1.619658,-0.593302 4.446029,0.945548 8.79855,2.403902 12.984737,4.11825 3.831264,1.25421 5.062456,5.898573 1.261209,7.937982 -0.621449,1.882734 -1.196782,1.091402 -2.074956,-0.301859 2.354803,1.474929 4.98971,0.164138 7.517916,0.461371 2.842848,0.450665 3.967677,6.465299 2.882607,6.927085 -1.785738,-1.400725 -1.286174,-1.454548 0.596463,-1.04781 5.165228,0.558708 3.602551,0.278226 6.54392,-0.371614 -2.331856,1.289238 -5.192616,3.094859 -7.916207,1.911091 -2.132446,-0.878252 -2.729103,-6.817941 -2.207804,-6.555868 3.526743,2.52971 -3.045524,1.319154 -4.694019,1.498317 -2.76194,-0.838784 -5.6214,-3.757158 -2.119345,-5.80107 1.960474,-0.73031 0.430973,-5.074937 2.456138,-2.125351 1.886085,1.59871 -2.043234,-1.346964 -3.133093,-1.296692 -3.571096,-1.279456 -7.29522,-2.073458 -10.990546,-2.923503 -4.551,-2.399611 0.359129,-6.188043 2.469159,-8.160728 1.364514,-1.271208 -1.333417,-3.663788 0.531737,-1.579791 1.168932,1.155773 2.58257,2.233217 0.210167,0.768227 -3.763098,-1.593264 -8.713255,-1.217702 -11.530691,-4.48181 -2.389605,-3.620389 0.387863,-7.675335 2.915933,-10.379705 2.998957,-2.765401 6.508603,-4.961493 9.316583,-7.948459 3.031721,-2.896753 5.414666,-6.37388 8.573634,-9.166857 2.514091,-2.339784 4.995344,-5.819237 8.91943,-5.431901 3.861136,1.637792 6.594833,5.172392 9.479308,8.082824 1.235764,1.479484 -3.319851,-3.285613 -0.630218,-0.585557 1.536604,1.511551 5.42128,5.20101 5.399314,5.326623 -2.907533,-2.818552 3.091438,2.779006 4.171036,3.390549 3.728232,2.921856 11.797319,9.039606 14.942822,12.588513 -0.958827,-0.71599 -1.91766,-1.43198 -2.876488,-2.147962 z" />
    <path
       style="fill:#201b11;fill-opacity:1;fill-rule:nonzero;stroke:none;display:inline"
       id="path3459"
       inkscape:connector-curvature="0"
       d="m 61.015389,40.297005 c -0.921281,-0.596977 -1.816894,-1.232691 -2.712539,-1.865938 -0.701326,-0.452498 -1.316062,-1.041959 -2.052659,-1.441603 -0.404114,-0.196241 -0.672311,0.02076 -0.919734,0.330145 -0.193778,0.383052 -0.322122,0.80432 -0.435985,1.218152 -0.176503,0.373482 -0.301363,0.765989 -0.507883,1.125292 -0.219939,0.430663 -0.674147,0.68677 -1.070887,0.948271 -0.457425,0.290642 -0.917253,0.337407 -1.404233,0.101883 -0.07205,-0.05153 -0.152522,-0.0934 -0.216168,-0.154578 -0.906657,-0.871572 -1.8038,-1.752653 -2.692584,-2.641611 -0.160561,-0.160596 -0.180015,-0.26974 -0.305974,-0.453203 -0.07863,-0.114528 -0.233168,-0.284077 -0.324773,-0.388295 0.774618,0.765725 1.549237,1.531458 2.323854,2.297191 -0.09091,-0.06812 -0.234373,-0.258496 -0.375142,-0.24237 -0.128199,0.01469 -0.244761,0.167478 -0.316998,0.237682 -0.358488,0.563545 -0.680254,1.148389 -1.062729,1.697297 -0.271379,0.401557 -0.542396,0.800637 -0.792543,1.215332 -0.261064,0.391089 -0.675603,0.523566 -1.123493,0.597788 -0.618417,0.06598 -1.109472,-0.260073 -1.562835,-0.627862 -1.54723,-1.380511 -2.920187,-2.214527 -3.178176,-4.095076 -0.122536,-0.477162 -0.136978,-0.961859 -0.523365,-1.312439 0.785268,0.77985 1.577474,1.553091 2.355806,2.33955 0.04584,0.04631 -0.100547,-0.08427 -0.156912,-0.117709 -0.236523,-0.140338 -0.519247,-0.17533 -0.789446,-0.182864 -0.371394,0.03917 -0.743699,0.09565 -1.078582,0.263651 -0.300403,0.211335 -0.61578,0.421868 -0.828535,0.722458 -0.224601,0.296925 -0.447178,0.589461 -0.723205,0.843393 -1.603865,1.051246 -3.660809,1.330873 -5.502969,1.743065 -4.08074,0.885249 -7.96591,2.41223 -11.843665,3.900854 l -1.747503,-1.847002 c 3.776014,-1.586091 7.54362,-3.228993 11.514187,-4.308005 1.717203,-0.506057 3.578096,-0.901498 5.028718,-1.988767 0.253403,-0.246195 0.465385,-0.522553 0.679521,-0.80129 0.259369,-0.331008 0.599946,-0.577926 0.936453,-0.830509 0.371106,-0.215767 0.780524,-0.295197 1.203053,-0.363613 1.778023,-0.239198 2.730051,1.550131 3.840912,2.736648 0.238443,0.446656 0.302555,0.947425 0.406901,1.436149 0.339956,1.577808 2.205828,2.791968 -1.702275,-0.955259 0.348312,0.364599 0.766359,0.729049 1.291496,0.797042 0.348058,-0.03449 0.687479,-0.07089 0.890309,-0.384383 0.26512,-0.409663 0.54669,-0.806224 0.828186,-1.204925 0.391033,-0.56559 0.73665,-1.157844 1.098451,-1.740889 0.237825,-0.259598 0.520857,-0.60438 0.921953,-0.464297 0.06842,0.02389 0.14296,0.04563 0.195015,0.09514 0.908632,0.864241 1.78616,1.759121 2.67924,2.638677 0.157435,0.204638 0.297229,0.422538 0.461646,0.621906 0.05756,0.06979 0.245888,0.26581 0.18017,0.203264 -0.725781,-0.690736 -3.251279,-3.13705 -2.162008,-2.087443 0.377733,0.334278 0.612772,0.42304 1.082538,0.164456 0.356515,-0.221671 0.753609,-0.442179 0.941058,-0.828086 0.180445,-0.344394 0.299983,-0.715197 0.456853,-1.070033 0.14323,-0.449 0.276757,-0.914301 0.538109,-1.312562 0.321818,-0.38863 0.722067,-0.759305 1.274923,-0.639042 0.839013,0.303768 1.438879,1.033469 2.185487,1.493052 0.845501,0.609543 1.723803,1.173908 2.570366,1.779988 l 2.228595,2.801326 z" />
    <path
       style="opacity:0.8;fill:#000000;fill-opacity:1;fill-rule:nonzero;stroke:none;display:inline"
       id="path3478"
       inkscape:connector-curvature="0"
       d="m 26.066538,73.853619 c -0.330073,0.305226 -0.561202,0.669217 -0.702655,1.088424 -0.07195,0.319007 -0.141273,0.687625 0.02471,0.994251 0.05148,0.09511 0.125548,0.17681 0.188321,0.26522 0.396267,0.511352 0.856757,0.968071 1.388194,1.344267 0.351341,0.260329 0.746529,0.406015 1.179132,0.465443 0.358712,0.03238 0.718586,0.01847 1.070605,-0.05523 0.814206,-0.348897 1.517826,-0.910028 2.229812,-1.423592 l 1.34764,-2.014171 c -0.673772,0.505677 -1.356624,1.010606 -2.099777,1.414568 -0.329269,0.08752 -0.657427,0.128574 -1.000746,0.106809 -0.400524,-0.02729 -0.767356,-0.133121 -1.095614,-0.369323 -0.518483,-0.335961 -0.968102,-0.761125 -1.315521,-1.267437 -0.215068,-0.42645 -0.192142,-0.674751 -0.03341,-1.117688 0.188195,-0.403425 0.480701,-0.725278 0.759675,-1.070421 l -1.940366,1.638883 z" />
    <path
       style="opacity:0.8;fill:#000000;fill-opacity:1;fill-rule:nonzero;stroke:none;display:inline"
       id="path3482"
       inkscape:connector-curvature="0"
       d="m 36.122329,61.651084 c 0.187869,0.220622 0.684957,0.684523 0.693431,0.740848 -0.556818,-0.499941 -1.106255,-1.008297 -1.684227,-1.48516 0.745561,0.773073 1.743996,1.272988 2.8012,1.495038 0.985809,0.246724 1.964443,0.521971 2.938248,0.806638 1.477546,0.311182 2.992084,0.402658 4.494587,0.526923 0.657474,-0.0071 1.736105,0.160306 1.894112,-0.695591 0.132675,-0.739729 -0.434903,-1.315708 -0.874266,-1.837026 0.588308,0.513291 1.148359,1.058648 1.739534,1.569736 -0.569321,-0.505598 -1.293081,-0.807175 -2.024198,-1.014783 -0.563869,-0.624197 -1.127738,-1.248394 -1.691607,-1.872591 0.991973,0.2638 1.946096,0.708147 2.685518,1.418357 0.706965,0.621941 1.480283,1.226453 1.957083,2.043912 0.331824,0.612883 0.380439,1.55035 -0.304474,1.952955 -0.718546,0.401707 -1.579766,0.214419 -2.363689,0.200276 -1.652018,-0.170624 -3.339314,-0.230069 -4.927904,-0.746717 -1.312059,-0.449149 -2.749771,-0.581644 -3.95133,-1.306711 -0.713474,-0.448779 -1.177519,-1.171872 -1.837467,-1.686159 -0.43082,-0.366221 -0.922109,-0.650826 -1.298797,-1.075717 -0.468534,-0.589672 0.492599,0.177339 0.731692,0.300476 0.340852,0.221768 0.681703,0.443536 1.022554,0.665296 z" />
  </g>
  <g
     id="g3109">
    <path
       d="m 109.35941,85.682597 c 7.09689,-3.830344 3.99092,-5.276699 7.23827,-17.395979 1.18425,-4.419702 7.86987,-1.953042 6.91182,1.622438 -2.91416,10.875784 -5.54563,13.104706 -14.15009,15.773541 z"
       inkscape:connector-curvature="0"
       id="path3286"
       style="fill:#000000;fill-opacity:1;fill-rule:evenodd;stroke:none" />
    <path
       d="m 136.88285,6.2901874 c 1.51983,0.4072367 -5.94072,37.3693426 -9.9474,49.2828086 -4.00668,11.913465 -8.56615,10.691753 -6.0793,-1.628948 2.48684,-12.320702 14.50688,-48.0610991 16.0267,-47.6538606 z"
       id="path3284"
       style="fill:#a91515;fill-opacity:1;fill-rule:evenodd;stroke:#a91515;stroke-width:0.69041437;stroke-linecap:square;stroke-linejoin:miter;stroke-miterlimit:4;stroke-opacity:1;stroke-dasharray:none;stroke-dashoffset:0"
       inkscape:connector-curvature="0" />
    <path
       d="m 120.33462,53.094737 -0.54402,2.155627 c 0.19883,0.269354 0.27747,0.611827 0.19314,0.945974 -0.0843,0.334147 -0.31607,0.598288 -0.6189,0.741036 l -0.7096,2.811684 c 0.19883,0.269357 0.27747,0.61183 0.19314,0.945976 -0.0843,0.334148 -0.31607,0.598287 -0.61891,0.741036 l -0.7096,2.811684 c 0.19883,0.269357 0.27748,0.611828 0.19315,0.945976 -0.0843,0.334147 -0.31607,0.598288 -0.61891,0.741037 l -0.3548,1.405842 7.30841,1.844467 0.3548,-1.405843 c -0.19883,-0.269359 -0.27747,-0.611828 -0.19314,-0.945976 0.0843,-0.334148 0.31606,-0.59829 0.61891,-0.741034 l 0.7096,-2.811687 c -0.19884,-0.269359 -0.27748,-0.611827 -0.19315,-0.945975 0.0843,-0.334148 0.31606,-0.598289 0.61891,-0.741035 l 0.7096,-2.811686 c -0.19884,-0.269358 -0.27747,-0.611828 -0.19314,-0.945976 0.0843,-0.334146 0.31606,-0.598287 0.6189,-0.741034 l 0.54403,-2.155626 -7.30842,-1.844467 z"
       inkscape:connector-curvature="0"
       id="rect2478"
       style="fill:#919191;fill-opacity:1;fill-rule:evenodd;stroke:none" />
  </g>
</svg>
