<?xml version="1.0" encoding="UTF-8" standalone="no"?>
<!-- Created with Inkscape (http://www.inkscape.org/) -->

<svg
   xmlns:dc="http://purl.org/dc/elements/1.1/"
   xmlns:cc="http://creativecommons.org/ns#"
   xmlns:rdf="http://www.w3.org/1999/02/22-rdf-syntax-ns#"
   xmlns:svg="http://www.w3.org/2000/svg"
   xmlns="http://www.w3.org/2000/svg"
   xmlns:xlink="http://www.w3.org/1999/xlink"
   xmlns:sodipodi="http://sodipodi.sourceforge.net/DTD/sodipodi-0.dtd"
   xmlns:inkscape="http://www.inkscape.org/namespaces/inkscape"
   version="1.0"
   width="96"
   height="96"
   id="svg2408"
   inkscape:version="0.48.4 r9939"
   sodipodi:docname="twitter.svg">
  <sodipodi:namedview
     pagecolor="#ffffff"
     bordercolor="#666666"
     borderopacity="1"
     objecttolerance="10"
     gridtolerance="10"
     guidetolerance="10"
     inkscape:pageopacity="0"
     inkscape:pageshadow="2"
     inkscape:window-width="1366"
     inkscape:window-height="726"
     id="namedview61"
     showgrid="false"
     inkscape:zoom="2.4583333"
     inkscape:cx="-6.6176423"
     inkscape:cy="56.261836"
     inkscape:window-x="0"
     inkscape:window-y="20"
     inkscape:window-maximized="1"
     inkscape:current-layer="svg2408" />
  <defs
     id="defs2410">
    <linearGradient
       id="linearGradient3704">
      <stop
         id="stop3706"
         style="stop-color:#34b5d8;stop-opacity:1"
         offset="0" />
      <stop
         id="stop3708"
         style="stop-color:#ffffff;stop-opacity:0"
         offset="1" />
    </linearGradient>
    <linearGradient
       x1="45.447727"
       y1="92.539597"
       x2="45.447727"
       y2="7.0165396"
       id="ButtonShadow"
       gradientUnits="userSpaceOnUse"
       gradientTransform="scale(1.0058652,0.994169)">
      <stop
         id="stop3750"
         style="stop-color:#000000;stop-opacity:1"
         offset="0" />
      <stop
         id="stop3752"
         style="stop-color:#000000;stop-opacity:0.58823532"
         offset="1" />
    </linearGradient>
    <linearGradient
       id="linearGradient3737">
      <stop
         id="stop3739"
         style="stop-color:#ffffff;stop-opacity:1"
         offset="0" />
      <stop
         id="stop3741"
         style="stop-color:#ffffff;stop-opacity:0"
         offset="1" />
    </linearGradient>
    <filter
       color-interpolation-filters="sRGB"
       id="filter3174">
      <feGaussianBlur
         id="feGaussianBlur3176"
         stdDeviation="1.71" />
    </filter>
    <linearGradient
       x1="36.357143"
       y1="6"
       x2="36.357143"
       y2="63.893143"
       id="linearGradient3188"
       xlink:href="#linearGradient3737"
       gradientUnits="userSpaceOnUse" />
    <filter
       x="-0.192"
       y="-0.192"
       width="1.3839999"
       height="1.3839999"
       color-interpolation-filters="sRGB"
       id="filter3794">
      <feGaussianBlur
         id="feGaussianBlur3796"
         stdDeviation="5.28" />
    </filter>
    <linearGradient
       x1="48"
       y1="20.220806"
       x2="48"
       y2="138.66119"
       id="linearGradient3613"
       xlink:href="#linearGradient3737"
       gradientUnits="userSpaceOnUse" />
    <radialGradient
       cx="48"
       cy="90.171875"
       r="42"
       fx="48"
       fy="90.171875"
       id="radialGradient3619"
       xlink:href="#linearGradient3704"
       gradientUnits="userSpaceOnUse"
       gradientTransform="matrix(1.1573129,0,0,0.99590774,-7.5510206,0.19713193)" />
    <clipPath
       id="clipPath3613">
      <rect
         width="84"
         height="84"
         rx="6"
         ry="6"
         x="6"
         y="6"
         id="rect3615"
         style="fill:#ffffff;fill-opacity:1;fill-rule:nonzero;stroke:none" />
    </clipPath>
    <linearGradient
       x1="53.194679"
       y1="89.16983"
       x2="53.194679"
       y2="8.3280878"
       id="linearGradient3724"
       xlink:href="#linearGradient4146-2-3"
       gradientUnits="userSpaceOnUse"
       gradientTransform="translate(0,-96)" />
    <linearGradient
       id="linearGradient3737-9">
      <stop
         id="stop3739-7"
         style="stop-color:#ffffff;stop-opacity:1"
         offset="0" />
      <stop
         id="stop3741-7"
         style="stop-color:#ffffff;stop-opacity:0"
         offset="1" />
    </linearGradient>
    <radialGradient
       cx="48"
       cy="90.171875"
       r="42"
       fx="48"
       fy="90.171875"
       id="radialGradient2899"
       xlink:href="#linearGradient3737-9"
       gradientUnits="userSpaceOnUse"
       gradientTransform="matrix(1.1573129,0,0,0.99590774,-7.551021,0.1971319)" />
    <linearGradient
       x1="45.447727"
       y1="92.539597"
       x2="45.447727"
       y2="7.0165396"
       id="ButtonShadow-0"
       gradientUnits="userSpaceOnUse"
       gradientTransform="matrix(1.0058652,0,0,0.994169,100,0)">
      <stop
         id="stop3750-8"
         style="stop-color:#000000;stop-opacity:1"
         offset="0" />
      <stop
         id="stop3752-5"
         style="stop-color:#000000;stop-opacity:0.58823532"
         offset="1" />
    </linearGradient>
    <linearGradient
       x1="32.251034"
       y1="6.1317081"
       x2="32.251034"
       y2="90.238609"
       id="linearGradient3780"
       xlink:href="#ButtonShadow-0"
       gradientUnits="userSpaceOnUse"
       gradientTransform="matrix(1.0238095,0,0,1.0119048,-1.1428571,-98.071429)" />
    <linearGradient
       x1="32.251034"
       y1="6.1317081"
       x2="32.251034"
       y2="90.238609"
       id="linearGradient3772"
       xlink:href="#ButtonShadow-0"
       gradientUnits="userSpaceOnUse"
       gradientTransform="matrix(1.0238095,0,0,1.0119048,-1.1428571,-98.071429)" />
    <linearGradient
       x1="32.251034"
       y1="6.1317081"
       x2="32.251034"
       y2="90.238609"
       id="linearGradient3725"
       xlink:href="#ButtonShadow-0"
       gradientUnits="userSpaceOnUse"
       gradientTransform="matrix(1.0238095,0,0,1.0119048,-1.1428571,-98.071429)" />
    <linearGradient
       x1="32.251034"
       y1="6.1317081"
       x2="32.251034"
       y2="90.238609"
       id="linearGradient3721"
       xlink:href="#ButtonShadow-0"
       gradientUnits="userSpaceOnUse"
       gradientTransform="translate(0,-97)" />
    <linearGradient
       x1="32.251034"
       y1="6.1317081"
       x2="32.251034"
       y2="90.238609"
       id="linearGradient3071"
       xlink:href="#ButtonShadow-0"
       gradientUnits="userSpaceOnUse"
       gradientTransform="matrix(1.0238095,0,0,1.0119048,-1.1428571,-98.071429)" />
    <linearGradient
       id="linearGradient4146-2-3">
      <stop
         id="stop4148-2-7"
         style="stop-color:#3abef0;stop-opacity:1"
         offset="0" />
      <stop
         id="stop4150-8-4"
         style="stop-color:#0f96c9;stop-opacity:1"
         offset="1" />
    </linearGradient>
    <radialGradient
       inkscape:collect="always"
       xlink:href="#linearGradient3737-9"
       id="radialGradient3813"
       gradientUnits="userSpaceOnUse"
       gradientTransform="matrix(1.3226433,0,0,1.1381802,-15.486881,-6.6318493)"
       cx="48"
       cy="90.171875"
       fx="48"
       fy="90.171875"
       r="42" />
    <linearGradient
       inkscape:collect="always"
       xlink:href="#linearGradient3737"
       id="linearGradient3816"
       gradientUnits="userSpaceOnUse"
       x1="36.357143"
       y1="6"
       x2="36.357143"
       y2="63.893143"
       gradientTransform="matrix(1.1428571,0,0,1.1428571,-6.8571429,-6.8571429)" />
    <radialGradient
       inkscape:collect="always"
       xlink:href="#linearGradient3704"
       id="radialGradient3822"
       gradientUnits="userSpaceOnUse"
       gradientTransform="matrix(1.3226433,0,0,1.1381802,-15.48688,-6.6318493)"
       cx="48"
       cy="90.171875"
       fx="48"
       fy="90.171875"
       r="42" />
  </defs>
  <metadata
     id="metadata2413">
    <rdf:RDF>
      <cc:Work
         rdf:about="">
        <dc:format>image/svg+xml</dc:format>
        <dc:type
           rdf:resource="http://purl.org/dc/dcmitype/StillImage" />
        <dc:title></dc:title>
      </cc:Work>
    </rdf:RDF>
  </metadata>
  <g
     id="layer2"
     style="display:none">
    <rect
       width="86"
       height="85"
       rx="6"
       ry="6"
       x="5"
       y="7"
       id="rect3745"
       style="opacity:0.9;fill:url(#ButtonShadow);fill-opacity:1;fill-rule:nonzero;stroke:none;filter:url(#filter3174)" />
  </g>
  <path
     style="opacity:0.2;fill:url(#radialGradient3822);fill-opacity:1;fill-rule:nonzero;stroke:none"
     id="path3615"
     inkscape:connector-curvature="0"
     d="M 6.8571423,95.999996 C 3.0582853,95.999996 -3e-7,92.941711 -3e-7,89.142853 l 0,-2.285714 0,-77.7142825 0,-2.2857142 c 0,-0.3825383 0.04725714,-0.7436571 0.10714285,-1.1071428 0.0556571,-0.337824 0.11090286,-0.6821886 0.21428571,-1 0.0112914,-0.03472 0.0238766,-0.072686 0.0357143,-0.1071428 C 0.47013111,4.3139755 0.62557705,4.0171973 0.78571396,3.7142853 0.95096172,3.4017059 1.1464181,3.1021539 1.3571425,2.8214282 1.567867,2.5407025 1.7843156,2.2803173 2.0357139,2.0357139 2.5385105,1.5465071 3.1133253,1.1048271 3.7499996,0.78571396 4.0683367,0.62615739 4.4053974,0.50348882 4.7499995,0.39285683 4.4571975,0.50739625 4.1937585,0.66288196 3.928571,0.82142824 c -0.00847,0.005029 -0.027275,-0.005143 -0.035714,0 -0.036495,0.0220571 -0.071192,0.0485829 -0.1071429,0.0714286 C 3.6481196,0.98051395 3.521688,1.0797288 3.3928567,1.1785711 3.2715164,1.2709139 3.1491071,1.3626991 3.0357139,1.4642854 2.8323654,1.6487802 2.6386172,1.8590145 2.4642853,2.0714282 2.341338,2.220291 2.2146923,2.374611 2.1071425,2.5357139 2.0784693,2.5795767 2.0632042,2.633851 2.0357139,2.678571 1.9616991,2.7963219 1.8868825,2.9123047 1.8214282,3.0357139 1.7059902,3.258235 1.5863713,3.5108007 1.4999996,3.7499996 c -0.0091,0.024926 -0.026959,0.046343 -0.035714,0.071428 -0.036372,0.1050857 -0.04092,0.2135212 -0.071429,0.3214286 -0.034665,0.1218491 -0.080445,0.2320354 -0.1071429,0.3571428 -0.08329,0.3902994 -0.1428571,0.7979486 -0.1428571,1.2142857 l 0,2.2857142 0,77.7142826 0,2.285714 c 0,3.179255 2.5350304,5.714286 5.7142855,5.714286 l 2.2857142,0 77.7142825,0 2.285714,0 c 3.179255,0 5.714286,-2.535031 5.714286,-5.714286 l 0,-2.285714 0,-77.7142826 0,-2.2857142 c 0,-0.4163371 -0.05957,-0.8239863 -0.142857,-1.2142857 -0.05046,-0.2364491 -0.101006,-0.4544662 -0.178572,-0.6785714 -0.0088,-0.025086 -0.02663,-0.046503 -0.03571,-0.071428 -0.0717,-0.1985589 -0.158152,-0.4199417 -0.25,-0.6071429 C 94.202476,3.0482282 94.159665,2.9486236 94.107139,2.8571425 94.044739,2.7460453 93.962254,2.6418853 93.892853,2.5357139 93.785299,2.374611 93.658658,2.220291 93.53571,2.0714282 93.372083,1.8720568 93.189264,1.6748591 92.999996,1.4999996 c -0.01277,-0.011657 -0.02283,-0.024171 -0.03571,-0.035714 -0.158155,-0.1434926 -0.325818,-0.2679269 -0.5,-0.3928572 -0.117224,-0.0836 -0.233506,-0.17527311 -0.357143,-0.24999996 -0.0085,-0.005143 -0.02725,0.005029 -0.03571,0 -0.265188,-0.15854628 -0.528626,-0.31403199 -0.821429,-0.42857141 0.344603,0.11062857 0.681663,0.23330056 1,0.39285713 0.636675,0.31911314 1.211489,0.76079314 1.714286,1.24999994 0.251398,0.2446034 0.467847,0.5049886 0.678571,0.7857143 0.210725,0.2807257 0.406181,0.5802777 0.571429,0.8928571 0.160137,0.302912 0.315583,0.5996902 0.428571,0.9285714 0.0119,0.035177 0.02438,0.071703 0.03571,0.1071428 0.103382,0.3178114 0.158628,0.662176 0.214285,1 0.05989,0.3634857 0.107143,0.7246045 0.107143,1.1071428 l 0,2.2857142 0,77.7142825 0,2.285714 c 0,3.798858 -3.058285,6.857143 -6.857143,6.857143 l -82.2857107,0 z" />
  <rect
     style="fill:#3abef0;fill-opacity:1;fill-rule:nonzero;stroke:none"
     id="rect2419"
     transform="scale(1,-1)"
     y="-95.999992"
     x="-3.0000001e-07"
     ry="0"
     rx="6.8571424"
     height="96"
     width="96" />
  <g
     id="layer5"
     style="display:none">
    <rect
       width="66"
       height="66"
       rx="12"
       ry="12"
       x="15"
       y="15"
       clip-path="url(#clipPath3613)"
       id="rect3171"
       style="opacity:0.1;fill:url(#linearGradient3613);fill-opacity:1;fill-rule:nonzero;stroke:#ffffff;stroke-width:0.5;stroke-linecap:round;stroke-linejoin:miter;stroke-miterlimit:4;stroke-opacity:1;stroke-dasharray:none;stroke-dashoffset:0;filter:url(#filter3794)" />
  </g>
  <g
     style="font-size:48px;font-style:normal;font-variant:normal;font-weight:normal;font-stretch:normal;text-align:start;line-height:125%;writing-mode:tb-rl;text-anchor:start;fill:#ff00ff;fill-opacity:1;stroke:none;font-family:American Participants;-inkscape-font-specification:American Participants"
     id="g3709"
     transform="matrix(0.94113621,0,0,0.94221106,4.5900791,2.5953791)" />
  <path
     style="fill:#ffffff;fill-opacity:1;stroke:none;display:inline"
     id="path6437"
     inkscape:connector-curvature="0"
     d="m 54.198005,26.847925 c -4.010038,1.217004 -7.868792,6.632458 -6.658274,12.758872 -13.30905,-0.801473 -19.186646,-7.93339 -22.721063,-11.346436 -3.602289,6.35923 0.09183,12.540133 3.318598,14.540849 -1.702919,0.09373 -3.762688,-0.642431 -4.785035,-1.282812 -0.388493,5.866743 4.391957,9.933595 8.458977,10.987655 -1.300135,0.3878 -2.525393,0.43994 -4.619905,0.1283 1.783632,5.90042 6.575506,7.47965 10.145026,7.73954 -4.595336,3.98771 -10.113808,4.85712 -16.114248,4.56384 15.55777,9.51847 31.268687,3.66242 38.915523,-3.80742 6.421253,-6.27283 9.291879,-15.665832 9.391219,-24.070355 1.469723,-1.194459 4.441492,-3.726231 5.249096,-5.707773 -1.172101,0.450911 -3.490836,1.523602 -5.910421,1.620045 1.992723,-1.305741 4.276338,-3.922339 4.515526,-5.967944 -2.206411,1.201715 -4.759668,2.24293 -6.946495,2.57497 -4.122527,-3.979699 -8.136783,-3.976237 -12.238524,-2.731331 z" />
</svg>
